<svg xmlns="http://www.w3.org/2000/svg" xmlns:xlink="http://www.w3.org/1999/xlink" width="50" zoomAndPan="magnify"
    viewBox="0 0 375 374.999991" height="50" preserveAspectRatio="xMidYMid meet" version="1.0">
    <defs>
        <clipPath id="2163a2c818">
            <path d="M 17.226562 24.316406 L 48 24.316406 L 48 55 L 17.226562 55 Z M 17.226562 24.316406 "
                clip-rule="nonzero" />
        </clipPath>
        <clipPath id="c002d875dc">
            <path d="M 47 24.316406 L 78 24.316406 L 78 55 L 47 55 Z M 47 24.316406 " clip-rule="nonzero" />
        </clipPath>
        <clipPath id="73819e9e28">
            <path d="M 77 24.316406 L 108 24.316406 L 108 55 L 77 55 Z M 77 24.316406 " clip-rule="nonzero" />
        </clipPath>
        <clipPath id="a624fe536e">
            <path d="M 107 24.316406 L 138 24.316406 L 138 55 L 107 55 Z M 107 24.316406 " clip-rule="nonzero" />
        </clipPath>
        <clipPath id="265594fee7">
            <path d="M 137 24.316406 L 168 24.316406 L 168 55 L 137 55 Z M 137 24.316406 " clip-rule="nonzero" />
        </clipPath>
        <clipPath id="c84578af1f">
            <path d="M 167 24.316406 L 197 24.316406 L 197 55 L 167 55 Z M 167 24.316406 " clip-rule="nonzero" />
        </clipPath>
        <clipPath id="efaafdb752">
            <path d="M 196 24.316406 L 227 24.316406 L 227 55 L 196 55 Z M 196 24.316406 " clip-rule="nonzero" />
        </clipPath>
        <clipPath id="634aefff18">
            <path d="M 226 24.316406 L 257 24.316406 L 257 55 L 226 55 Z M 226 24.316406 " clip-rule="nonzero" />
        </clipPath>
        <clipPath id="55b31dc354">
            <path d="M 256 24.316406 L 287 24.316406 L 287 55 L 256 55 Z M 256 24.316406 " clip-rule="nonzero" />
        </clipPath>
        <clipPath id="3f8013af94">
            <path d="M 286 24.316406 L 317 24.316406 L 317 55 L 286 55 Z M 286 24.316406 " clip-rule="nonzero" />
        </clipPath>
        <clipPath id="c40949904a">
            <path d="M 316 24.316406 L 346.476562 24.316406 L 346.476562 55 L 316 55 Z M 316 24.316406 "
                clip-rule="nonzero" />
        </clipPath>
        <clipPath id="3fcdb2b5e7">
            <path d="M 346 24.316406 L 346.476562 24.316406 L 346.476562 55 L 346 55 Z M 346 24.316406 "
                clip-rule="nonzero" />
        </clipPath>
        <clipPath id="69fdd4adc8">
            <path d="M 17.226562 54 L 48 54 L 48 85 L 17.226562 85 Z M 17.226562 54 " clip-rule="nonzero" />
        </clipPath>
        <clipPath id="5186e72434">
            <path d="M 316 54 L 346.476562 54 L 346.476562 85 L 316 85 Z M 316 54 " clip-rule="nonzero" />
        </clipPath>
        <clipPath id="f95f8c6d7d">
            <path d="M 346 54 L 346.476562 54 L 346.476562 85 L 346 85 Z M 346 54 " clip-rule="nonzero" />
        </clipPath>
        <clipPath id="2bab2a7809">
            <path d="M 17.226562 84 L 48 84 L 48 114 L 17.226562 114 Z M 17.226562 84 " clip-rule="nonzero" />
        </clipPath>
        <clipPath id="236f53d50f">
            <path d="M 316 84 L 346.476562 84 L 346.476562 114 L 316 114 Z M 316 84 " clip-rule="nonzero" />
        </clipPath>
        <clipPath id="d3ab813e31">
            <path d="M 346 84 L 346.476562 84 L 346.476562 114 L 346 114 Z M 346 84 " clip-rule="nonzero" />
        </clipPath>
        <clipPath id="515a94f17c">
            <path d="M 17.226562 113 L 48 113 L 48 144 L 17.226562 144 Z M 17.226562 113 " clip-rule="nonzero" />
        </clipPath>
        <clipPath id="77f3a872d8">
            <path d="M 316 113 L 346.476562 113 L 346.476562 144 L 316 144 Z M 316 113 " clip-rule="nonzero" />
        </clipPath>
        <clipPath id="f064ca464d">
            <path d="M 346 113 L 346.476562 113 L 346.476562 144 L 346 144 Z M 346 113 " clip-rule="nonzero" />
        </clipPath>
        <clipPath id="f61f38f2b3">
            <path d="M 17.226562 143 L 48 143 L 48 174 L 17.226562 174 Z M 17.226562 143 " clip-rule="nonzero" />
        </clipPath>
        <clipPath id="39871b000b">
            <path d="M 316 143 L 346.476562 143 L 346.476562 174 L 316 174 Z M 316 143 " clip-rule="nonzero" />
        </clipPath>
        <clipPath id="c515bfcc43">
            <path d="M 346 143 L 346.476562 143 L 346.476562 174 L 346 174 Z M 346 143 " clip-rule="nonzero" />
        </clipPath>
        <clipPath id="f195ff48e5">
            <path d="M 17.226562 173 L 48 173 L 48 204 L 17.226562 204 Z M 17.226562 173 " clip-rule="nonzero" />
        </clipPath>
        <clipPath id="bee0a83ec8">
            <path d="M 316 173 L 346.476562 173 L 346.476562 204 L 316 204 Z M 316 173 " clip-rule="nonzero" />
        </clipPath>
        <clipPath id="05284201a3">
            <path d="M 346 173 L 346.476562 173 L 346.476562 204 L 346 204 Z M 346 173 " clip-rule="nonzero" />
        </clipPath>
        <clipPath id="5f2a8d4ee4">
            <path d="M 17.226562 203 L 48 203 L 48 234 L 17.226562 234 Z M 17.226562 203 " clip-rule="nonzero" />
        </clipPath>
        <clipPath id="d7e19de4f5">
            <path d="M 316 203 L 346.476562 203 L 346.476562 234 L 316 234 Z M 316 203 " clip-rule="nonzero" />
        </clipPath>
        <clipPath id="b109ca570e">
            <path d="M 346 203 L 346.476562 203 L 346.476562 234 L 346 234 Z M 346 203 " clip-rule="nonzero" />
        </clipPath>
        <clipPath id="53ddfcb076">
            <path d="M 17.226562 233 L 48 233 L 48 264 L 17.226562 264 Z M 17.226562 233 " clip-rule="nonzero" />
        </clipPath>
        <clipPath id="41e673d18a">
            <path d="M 316 233 L 346.476562 233 L 346.476562 264 L 316 264 Z M 316 233 " clip-rule="nonzero" />
        </clipPath>
        <clipPath id="f475d7511b">
            <path d="M 346 233 L 346.476562 233 L 346.476562 264 L 346 264 Z M 346 233 " clip-rule="nonzero" />
        </clipPath>
        <clipPath id="ffdd3ccb9d">
            <path d="M 17.226562 263 L 48 263 L 48 294 L 17.226562 294 Z M 17.226562 263 " clip-rule="nonzero" />
        </clipPath>
        <clipPath id="6ee8d9776b">
            <path d="M 316 263 L 346.476562 263 L 346.476562 294 L 316 294 Z M 316 263 " clip-rule="nonzero" />
        </clipPath>
        <clipPath id="4480d5b899">
            <path d="M 346 263 L 346.476562 263 L 346.476562 294 L 346 294 Z M 346 263 " clip-rule="nonzero" />
        </clipPath>
        <clipPath id="10340c1552">
            <path d="M 17.226562 293 L 48 293 L 48 324 L 17.226562 324 Z M 17.226562 293 " clip-rule="nonzero" />
        </clipPath>
        <clipPath id="f212f29674">
            <path d="M 316 293 L 346.476562 293 L 346.476562 324 L 316 324 Z M 316 293 " clip-rule="nonzero" />
        </clipPath>
        <clipPath id="6b08ea8e98">
            <path d="M 346 293 L 346.476562 293 L 346.476562 324 L 346 324 Z M 346 293 " clip-rule="nonzero" />
        </clipPath>
        <clipPath id="e7163e905b">
            <path d="M 17.226562 323 L 48 323 L 48 350.566406 L 17.226562 350.566406 Z M 17.226562 323 "
                clip-rule="nonzero" />
        </clipPath>
        <clipPath id="41369e9f78">
            <path d="M 47 323 L 78 323 L 78 350.566406 L 47 350.566406 Z M 47 323 " clip-rule="nonzero" />
        </clipPath>
        <clipPath id="300ac1fd4b">
            <path d="M 77 323 L 108 323 L 108 350.566406 L 77 350.566406 Z M 77 323 " clip-rule="nonzero" />
        </clipPath>
        <clipPath id="1f706389eb">
            <path d="M 107 323 L 138 323 L 138 350.566406 L 107 350.566406 Z M 107 323 " clip-rule="nonzero" />
        </clipPath>
        <clipPath id="ab06da161e">
            <path d="M 137 323 L 168 323 L 168 350.566406 L 137 350.566406 Z M 137 323 " clip-rule="nonzero" />
        </clipPath>
        <clipPath id="5608f233b8">
            <path d="M 167 323 L 197 323 L 197 350.566406 L 167 350.566406 Z M 167 323 " clip-rule="nonzero" />
        </clipPath>
        <clipPath id="3b37f05b93">
            <path d="M 196 323 L 227 323 L 227 350.566406 L 196 350.566406 Z M 196 323 " clip-rule="nonzero" />
        </clipPath>
        <clipPath id="ed889e324b">
            <path d="M 226 323 L 257 323 L 257 350.566406 L 226 350.566406 Z M 226 323 " clip-rule="nonzero" />
        </clipPath>
        <clipPath id="f676416eb9">
            <path d="M 256 323 L 287 323 L 287 350.566406 L 256 350.566406 Z M 256 323 " clip-rule="nonzero" />
        </clipPath>
        <clipPath id="81ceb4bd8b">
            <path d="M 286 323 L 317 323 L 317 350.566406 L 286 350.566406 Z M 286 323 " clip-rule="nonzero" />
        </clipPath>
        <clipPath id="7b879aa64e">
            <path d="M 316 323 L 346.476562 323 L 346.476562 350.566406 L 316 350.566406 Z M 316 323 "
                clip-rule="nonzero" />
        </clipPath>
        <clipPath id="f3e0fed858">
            <path d="M 346 323 L 346.476562 323 L 346.476562 350.566406 L 346 350.566406 Z M 346 323 "
                clip-rule="nonzero" />
        </clipPath>
    </defs>
    <g clip-path="url(#2163a2c818)">
        <path fill="#141413"
            d="M 47.421875 54.207031 L 17.515625 54.207031 L 17.515625 24.320312 L 47.421875 24.320312 L 47.421875 54.207031 "
            fill-opacity="1" fill-rule="nonzero" />
    </g>
    <g clip-path="url(#c002d875dc)">
        <path fill="transparent"
            d="M 77.328125 54.207031 L 47.421875 54.207031 L 47.421875 24.320312 L 77.328125 24.320312 L 77.328125 54.207031 "
            fill-opacity="1" fill-rule="nonzero" />
    </g>
    <g clip-path="url(#73819e9e28)">
        <path fill="#141413"
            d="M 107.234375 54.207031 L 77.328125 54.207031 L 77.328125 24.320312 L 107.234375 24.320312 L 107.234375 54.207031 "
            fill-opacity="1" fill-rule="nonzero" />
    </g>
    <g clip-path="url(#a624fe536e)">
        <path fill="transparent"
            d="M 137.140625 54.207031 L 107.234375 54.207031 L 107.234375 24.320312 L 137.140625 24.320312 L 137.140625 54.207031 "
            fill-opacity="1" fill-rule="nonzero" />
    </g>
    <g clip-path="url(#265594fee7)">
        <path fill="#141413"
            d="M 167.042969 54.207031 L 137.140625 54.207031 L 137.140625 24.320312 L 167.042969 24.320312 L 167.042969 54.207031 "
            fill-opacity="1" fill-rule="nonzero" />
    </g>
    <g clip-path="url(#c84578af1f)">
        <path fill="transparent"
            d="M 196.949219 54.207031 L 167.042969 54.207031 L 167.042969 24.320312 L 196.949219 24.320312 L 196.949219 54.207031 "
            fill-opacity="1" fill-rule="nonzero" />
    </g>
    <g clip-path="url(#efaafdb752)">
        <path fill="#141413"
            d="M 226.855469 54.207031 L 196.949219 54.207031 L 196.949219 24.320312 L 226.855469 24.320312 L 226.855469 54.207031 "
            fill-opacity="1" fill-rule="nonzero" />
    </g>
    <g clip-path="url(#634aefff18)">
        <path fill="transparent"
            d="M 256.761719 54.207031 L 226.855469 54.207031 L 226.855469 24.320312 L 256.761719 24.320312 L 256.761719 54.207031 "
            fill-opacity="1" fill-rule="nonzero" />
    </g>
    <g clip-path="url(#55b31dc354)">
        <path fill="#141413"
            d="M 286.667969 54.207031 L 256.761719 54.207031 L 256.761719 24.320312 L 286.667969 24.320312 L 286.667969 54.207031 "
            fill-opacity="1" fill-rule="nonzero" />
    </g>
    <g clip-path="url(#3f8013af94)">
        <path fill="transparent"
            d="M 316.574219 54.207031 L 286.667969 54.207031 L 286.667969 24.320312 L 316.574219 24.320312 L 316.574219 54.207031 "
            fill-opacity="1" fill-rule="nonzero" />
    </g>
    <g clip-path="url(#c40949904a)">
        <path fill="#141413"
            d="M 346.480469 54.207031 L 316.574219 54.207031 L 316.574219 24.320312 L 346.480469 24.320312 L 346.480469 54.207031 "
            fill-opacity="1" fill-rule="nonzero" />
    </g>
    <g clip-path="url(#3fcdb2b5e7)">
        <path fill="transparent"
            d="M 376.382812 54.207031 L 346.480469 54.207031 L 346.480469 24.320312 L 376.382812 24.320312 L 376.382812 54.207031 "
            fill-opacity="1" fill-rule="nonzero" />
    </g>
    <g clip-path="url(#69fdd4adc8)">
        <path fill="transparent"
            d="M 47.421875 84.09375 L 17.515625 84.09375 L 17.515625 54.207031 L 47.421875 54.207031 L 47.421875 84.09375 "
            fill-opacity="1" fill-rule="nonzero" />
    </g>
    <path fill="#141413"
        d="M 77.328125 84.09375 L 47.421875 84.09375 L 47.421875 54.207031 L 77.328125 54.207031 L 77.328125 84.09375 "
        fill-opacity="1" fill-rule="nonzero" />
    <path fill="transparent"
        d="M 107.234375 84.09375 L 77.328125 84.09375 L 77.328125 54.207031 L 107.234375 54.207031 L 107.234375 84.09375 "
        fill-opacity="1" fill-rule="nonzero" />
    <path fill="#141413"
        d="M 137.140625 84.09375 L 107.234375 84.09375 L 107.234375 54.207031 L 137.140625 54.207031 L 137.140625 84.09375 "
        fill-opacity="1" fill-rule="nonzero" />
    <path fill="transparent"
        d="M 167.042969 84.09375 L 137.140625 84.09375 L 137.140625 54.207031 L 167.042969 54.207031 L 167.042969 84.09375 "
        fill-opacity="1" fill-rule="nonzero" />
    <path fill="#141413"
        d="M 196.949219 84.09375 L 167.042969 84.09375 L 167.042969 54.207031 L 196.949219 54.207031 L 196.949219 84.09375 "
        fill-opacity="1" fill-rule="nonzero" />
    <path fill="transparent"
        d="M 226.855469 84.09375 L 196.949219 84.09375 L 196.949219 54.207031 L 226.855469 54.207031 L 226.855469 84.09375 "
        fill-opacity="1" fill-rule="nonzero" />
    <path fill="#141413"
        d="M 256.761719 84.09375 L 226.855469 84.09375 L 226.855469 54.207031 L 256.761719 54.207031 L 256.761719 84.09375 "
        fill-opacity="1" fill-rule="nonzero" />
    <path fill="transparent"
        d="M 286.667969 84.09375 L 256.761719 84.09375 L 256.761719 54.207031 L 286.667969 54.207031 L 286.667969 84.09375 "
        fill-opacity="1" fill-rule="nonzero" />
    <path fill="#141413"
        d="M 316.574219 84.09375 L 286.667969 84.09375 L 286.667969 54.207031 L 316.574219 54.207031 L 316.574219 84.09375 "
        fill-opacity="1" fill-rule="nonzero" />
    <g clip-path="url(#5186e72434)">
        <path fill="transparent"
            d="M 346.480469 84.09375 L 316.574219 84.09375 L 316.574219 54.207031 L 346.480469 54.207031 L 346.480469 84.09375 "
            fill-opacity="1" fill-rule="nonzero" />
    </g>
    <g clip-path="url(#f95f8c6d7d)">
        <path fill="#141413"
            d="M 376.382812 84.09375 L 346.480469 84.09375 L 346.480469 54.207031 L 376.382812 54.207031 L 376.382812 84.09375 "
            fill-opacity="1" fill-rule="nonzero" />
    </g>
    <g clip-path="url(#2bab2a7809)">
        <path fill="#141413"
            d="M 47.421875 113.984375 L 17.515625 113.984375 L 17.515625 84.09375 L 47.421875 84.09375 L 47.421875 113.984375 "
            fill-opacity="1" fill-rule="nonzero" />
    </g>
    <path fill="transparent"
        d="M 77.328125 113.984375 L 47.421875 113.984375 L 47.421875 84.09375 L 77.328125 84.09375 L 77.328125 113.984375 "
        fill-opacity="1" fill-rule="nonzero" />
    <path fill="#141413"
        d="M 107.234375 113.984375 L 77.328125 113.984375 L 77.328125 84.09375 L 107.234375 84.09375 L 107.234375 113.984375 "
        fill-opacity="1" fill-rule="nonzero" />
    <path fill="transparent"
        d="M 137.140625 113.984375 L 107.234375 113.984375 L 107.234375 84.09375 L 137.140625 84.09375 L 137.140625 113.984375 "
        fill-opacity="1" fill-rule="nonzero" />
    <path fill="#141413"
        d="M 167.042969 113.984375 L 137.140625 113.984375 L 137.140625 84.09375 L 167.042969 84.09375 L 167.042969 113.984375 "
        fill-opacity="1" fill-rule="nonzero" />
    <path fill="transparent"
        d="M 196.949219 113.984375 L 167.042969 113.984375 L 167.042969 84.09375 L 196.949219 84.09375 L 196.949219 113.984375 "
        fill-opacity="1" fill-rule="nonzero" />
    <path fill="#141413"
        d="M 226.855469 113.984375 L 196.949219 113.984375 L 196.949219 84.09375 L 226.855469 84.09375 L 226.855469 113.984375 "
        fill-opacity="1" fill-rule="nonzero" />
    <path fill="transparent"
        d="M 256.761719 113.984375 L 226.855469 113.984375 L 226.855469 84.09375 L 256.761719 84.09375 L 256.761719 113.984375 "
        fill-opacity="1" fill-rule="nonzero" />
    <path fill="#141413"
        d="M 286.667969 113.984375 L 256.761719 113.984375 L 256.761719 84.09375 L 286.667969 84.09375 L 286.667969 113.984375 "
        fill-opacity="1" fill-rule="nonzero" />
    <path fill="transparent"
        d="M 316.574219 113.984375 L 286.667969 113.984375 L 286.667969 84.09375 L 316.574219 84.09375 L 316.574219 113.984375 "
        fill-opacity="1" fill-rule="nonzero" />
    <g clip-path="url(#236f53d50f)">
        <path fill="#141413"
            d="M 346.480469 113.984375 L 316.574219 113.984375 L 316.574219 84.09375 L 346.480469 84.09375 L 346.480469 113.984375 "
            fill-opacity="1" fill-rule="nonzero" />
    </g>
    <g clip-path="url(#d3ab813e31)">
        <path fill="transparent"
            d="M 376.386719 113.984375 L 346.480469 113.984375 L 346.480469 84.09375 L 376.386719 84.09375 L 376.386719 113.984375 "
            fill-opacity="1" fill-rule="nonzero" />
    </g>
    <g clip-path="url(#515a94f17c)">
        <path fill="transparent"
            d="M 47.421875 143.867188 L 17.515625 143.867188 L 17.515625 113.980469 L 47.421875 113.980469 L 47.421875 143.867188 "
            fill-opacity="1" fill-rule="nonzero" />
    </g>
    <path fill="#141413"
        d="M 77.328125 143.867188 L 47.421875 143.867188 L 47.421875 113.980469 L 77.328125 113.980469 L 77.328125 143.867188 "
        fill-opacity="1" fill-rule="nonzero" />
    <path fill="transparent"
        d="M 107.234375 143.867188 L 77.328125 143.867188 L 77.328125 113.980469 L 107.234375 113.980469 L 107.234375 143.867188 "
        fill-opacity="1" fill-rule="nonzero" />
    <path fill="#141413"
        d="M 137.136719 143.867188 L 107.234375 143.867188 L 107.234375 113.980469 L 137.136719 113.980469 L 137.136719 143.867188 "
        fill-opacity="1" fill-rule="nonzero" />
    <path fill="transparent"
        d="M 167.042969 143.867188 L 137.136719 143.867188 L 137.136719 113.980469 L 167.042969 113.980469 L 167.042969 143.867188 "
        fill-opacity="1" fill-rule="nonzero" />
    <path fill="#141413"
        d="M 196.949219 143.867188 L 167.042969 143.867188 L 167.042969 113.980469 L 196.949219 113.980469 L 196.949219 143.867188 "
        fill-opacity="1" fill-rule="nonzero" />
    <path fill="transparent"
        d="M 226.855469 143.867188 L 196.949219 143.867188 L 196.949219 113.980469 L 226.855469 113.980469 L 226.855469 143.867188 "
        fill-opacity="1" fill-rule="nonzero" />
    <path fill="#141413"
        d="M 256.761719 143.867188 L 226.855469 143.867188 L 226.855469 113.980469 L 256.761719 113.980469 L 256.761719 143.867188 "
        fill-opacity="1" fill-rule="nonzero" />
    <path fill="transparent"
        d="M 286.667969 143.867188 L 256.761719 143.867188 L 256.761719 113.980469 L 286.667969 113.980469 L 286.667969 143.867188 "
        fill-opacity="1" fill-rule="nonzero" />
    <path fill="#141413"
        d="M 316.574219 143.867188 L 286.667969 143.867188 L 286.667969 113.980469 L 316.574219 113.980469 L 316.574219 143.867188 "
        fill-opacity="1" fill-rule="nonzero" />
    <g clip-path="url(#77f3a872d8)">
        <path fill="transparent"
            d="M 346.480469 143.867188 L 316.574219 143.867188 L 316.574219 113.980469 L 346.480469 113.980469 L 346.480469 143.867188 "
            fill-opacity="1" fill-rule="nonzero" />
    </g>
    <g clip-path="url(#f064ca464d)">
        <path fill="#141413"
            d="M 376.382812 143.867188 L 346.480469 143.867188 L 346.480469 113.980469 L 376.382812 113.980469 L 376.382812 143.867188 "
            fill-opacity="1" fill-rule="nonzero" />
    </g>
    <g clip-path="url(#f61f38f2b3)">
        <path fill="#141413"
            d="M 47.421875 173.753906 L 17.515625 173.753906 L 17.515625 143.867188 L 47.421875 143.867188 L 47.421875 173.753906 "
            fill-opacity="1" fill-rule="nonzero" />
    </g>
    <path fill="transparent"
        d="M 77.328125 173.753906 L 47.421875 173.753906 L 47.421875 143.867188 L 77.328125 143.867188 L 77.328125 173.753906 "
        fill-opacity="1" fill-rule="nonzero" />
    <path fill="#141413"
        d="M 107.234375 173.753906 L 77.328125 173.753906 L 77.328125 143.867188 L 107.234375 143.867188 L 107.234375 173.753906 "
        fill-opacity="1" fill-rule="nonzero" />
    <path fill="transparent"
        d="M 137.140625 173.753906 L 107.234375 173.753906 L 107.234375 143.867188 L 137.140625 143.867188 L 137.140625 173.753906 "
        fill-opacity="1" fill-rule="nonzero" />
    <path fill="#141413"
        d="M 167.042969 173.753906 L 137.140625 173.753906 L 137.140625 143.867188 L 167.042969 143.867188 L 167.042969 173.753906 "
        fill-opacity="1" fill-rule="nonzero" />
    <path fill="transparent"
        d="M 196.949219 173.753906 L 167.042969 173.753906 L 167.042969 143.867188 L 196.949219 143.867188 L 196.949219 173.753906 "
        fill-opacity="1" fill-rule="nonzero" />
    <path fill="#141413"
        d="M 226.855469 173.753906 L 196.949219 173.753906 L 196.949219 143.867188 L 226.855469 143.867188 L 226.855469 173.753906 "
        fill-opacity="1" fill-rule="nonzero" />
    <path fill="transparent"
        d="M 256.761719 173.753906 L 226.855469 173.753906 L 226.855469 143.867188 L 256.761719 143.867188 L 256.761719 173.753906 "
        fill-opacity="1" fill-rule="nonzero" />
    <path fill="#141413"
        d="M 286.667969 173.753906 L 256.761719 173.753906 L 256.761719 143.867188 L 286.667969 143.867188 L 286.667969 173.753906 "
        fill-opacity="1" fill-rule="nonzero" />
    <path fill="transparent"
        d="M 316.574219 173.753906 L 286.667969 173.753906 L 286.667969 143.867188 L 316.574219 143.867188 L 316.574219 173.753906 "
        fill-opacity="1" fill-rule="nonzero" />
    <g clip-path="url(#39871b000b)">
        <path fill="#141413"
            d="M 346.480469 173.753906 L 316.574219 173.753906 L 316.574219 143.867188 L 346.480469 143.867188 L 346.480469 173.753906 "
            fill-opacity="1" fill-rule="nonzero" />
    </g>
    <g clip-path="url(#c515bfcc43)">
        <path fill="transparent"
            d="M 376.386719 173.753906 L 346.480469 173.753906 L 346.480469 143.867188 L 376.386719 143.867188 L 376.386719 173.753906 "
            fill-opacity="1" fill-rule="nonzero" />
    </g>
    <g clip-path="url(#f195ff48e5)">
        <path fill="transparent"
            d="M 47.421875 203.640625 L 17.515625 203.640625 L 17.515625 173.753906 L 47.421875 173.753906 L 47.421875 203.640625 "
            fill-opacity="1" fill-rule="nonzero" />
    </g>
    <path fill="#141413"
        d="M 77.328125 203.640625 L 47.421875 203.640625 L 47.421875 173.753906 L 77.328125 173.753906 L 77.328125 203.640625 "
        fill-opacity="1" fill-rule="nonzero" />
    <path fill="transparent"
        d="M 107.234375 203.640625 L 77.328125 203.640625 L 77.328125 173.753906 L 107.234375 173.753906 L 107.234375 203.640625 "
        fill-opacity="1" fill-rule="nonzero" />
    <path fill="#141413"
        d="M 137.140625 203.640625 L 107.234375 203.640625 L 107.234375 173.753906 L 137.140625 173.753906 L 137.140625 203.640625 "
        fill-opacity="1" fill-rule="nonzero" />
    <path fill="transparent"
        d="M 167.042969 203.640625 L 137.140625 203.640625 L 137.140625 173.753906 L 167.042969 173.753906 L 167.042969 203.640625 "
        fill-opacity="1" fill-rule="nonzero" />
    <path fill="#141413"
        d="M 196.949219 203.640625 L 167.042969 203.640625 L 167.042969 173.753906 L 196.949219 173.753906 L 196.949219 203.640625 "
        fill-opacity="1" fill-rule="nonzero" />
    <path fill="transparent"
        d="M 226.855469 203.640625 L 196.949219 203.640625 L 196.949219 173.753906 L 226.855469 173.753906 L 226.855469 203.640625 "
        fill-opacity="1" fill-rule="nonzero" />
    <path fill="#141413"
        d="M 256.761719 203.640625 L 226.855469 203.640625 L 226.855469 173.753906 L 256.761719 173.753906 L 256.761719 203.640625 "
        fill-opacity="1" fill-rule="nonzero" />
    <path fill="transparent"
        d="M 286.667969 203.640625 L 256.761719 203.640625 L 256.761719 173.753906 L 286.667969 173.753906 L 286.667969 203.640625 "
        fill-opacity="1" fill-rule="nonzero" />
    <path fill="#141413"
        d="M 316.574219 203.640625 L 286.667969 203.640625 L 286.667969 173.753906 L 316.574219 173.753906 L 316.574219 203.640625 "
        fill-opacity="1" fill-rule="nonzero" />
    <g clip-path="url(#bee0a83ec8)">
        <path fill="transparent"
            d="M 346.480469 203.640625 L 316.574219 203.640625 L 316.574219 173.753906 L 346.480469 173.753906 L 346.480469 203.640625 "
            fill-opacity="1" fill-rule="nonzero" />
    </g>
    <g clip-path="url(#05284201a3)">
        <path fill="#141413"
            d="M 376.386719 203.640625 L 346.480469 203.640625 L 346.480469 173.753906 L 376.386719 173.753906 L 376.386719 203.640625 "
            fill-opacity="1" fill-rule="nonzero" />
    </g>
    <g clip-path="url(#5f2a8d4ee4)">
        <path fill="#141413"
            d="M 47.421875 233.527344 L 17.515625 233.527344 L 17.515625 203.640625 L 47.421875 203.640625 L 47.421875 233.527344 "
            fill-opacity="1" fill-rule="nonzero" />
    </g>
    <path fill="transparent"
        d="M 77.328125 233.527344 L 47.421875 233.527344 L 47.421875 203.640625 L 77.328125 203.640625 L 77.328125 233.527344 "
        fill-opacity="1" fill-rule="nonzero" />
    <path fill="#141413"
        d="M 107.234375 233.527344 L 77.328125 233.527344 L 77.328125 203.640625 L 107.234375 203.640625 L 107.234375 233.527344 "
        fill-opacity="1" fill-rule="nonzero" />
    <path fill="transparent"
        d="M 137.140625 233.527344 L 107.234375 233.527344 L 107.234375 203.640625 L 137.140625 203.640625 L 137.140625 233.527344 "
        fill-opacity="1" fill-rule="nonzero" />
    <path fill="#141413"
        d="M 167.042969 233.527344 L 137.140625 233.527344 L 137.140625 203.640625 L 167.042969 203.640625 L 167.042969 233.527344 "
        fill-opacity="1" fill-rule="nonzero" />
    <path fill="transparent"
        d="M 196.949219 233.527344 L 167.042969 233.527344 L 167.042969 203.640625 L 196.949219 203.640625 L 196.949219 233.527344 "
        fill-opacity="1" fill-rule="nonzero" />
    <path fill="#141413"
        d="M 226.855469 233.527344 L 196.949219 233.527344 L 196.949219 203.640625 L 226.855469 203.640625 L 226.855469 233.527344 "
        fill-opacity="1" fill-rule="nonzero" />
    <path fill="transparent"
        d="M 256.761719 233.527344 L 226.855469 233.527344 L 226.855469 203.640625 L 256.761719 203.640625 L 256.761719 233.527344 "
        fill-opacity="1" fill-rule="nonzero" />
    <path fill="#141413"
        d="M 286.667969 233.527344 L 256.761719 233.527344 L 256.761719 203.640625 L 286.667969 203.640625 L 286.667969 233.527344 "
        fill-opacity="1" fill-rule="nonzero" />
    <path fill="transparent"
        d="M 316.574219 233.527344 L 286.667969 233.527344 L 286.667969 203.640625 L 316.574219 203.640625 L 316.574219 233.527344 "
        fill-opacity="1" fill-rule="nonzero" />
    <g clip-path="url(#d7e19de4f5)">
        <path fill="#141413"
            d="M 346.480469 233.527344 L 316.574219 233.527344 L 316.574219 203.640625 L 346.480469 203.640625 L 346.480469 233.527344 "
            fill-opacity="1" fill-rule="nonzero" />
    </g>
    <g clip-path="url(#b109ca570e)">
        <path fill="transparent"
            d="M 376.386719 233.527344 L 346.480469 233.527344 L 346.480469 203.640625 L 376.386719 203.640625 L 376.386719 233.527344 "
            fill-opacity="1" fill-rule="nonzero" />
    </g>
    <g clip-path="url(#53ddfcb076)">
        <path fill="transparent"
            d="M 47.421875 263.417969 L 17.515625 263.417969 L 17.515625 233.527344 L 47.421875 233.527344 L 47.421875 263.417969 "
            fill-opacity="1" fill-rule="nonzero" />
    </g>
    <path fill="#141413"
        d="M 77.328125 263.417969 L 47.421875 263.417969 L 47.421875 233.527344 L 77.328125 233.527344 L 77.328125 263.417969 "
        fill-opacity="1" fill-rule="nonzero" />
    <path fill="transparent"
        d="M 107.234375 263.417969 L 77.328125 263.417969 L 77.328125 233.527344 L 107.234375 233.527344 L 107.234375 263.417969 "
        fill-opacity="1" fill-rule="nonzero" />
    <path fill="#141413"
        d="M 137.140625 263.417969 L 107.234375 263.417969 L 107.234375 233.527344 L 137.140625 233.527344 L 137.140625 263.417969 "
        fill-opacity="1" fill-rule="nonzero" />
    <path fill="transparent"
        d="M 167.042969 263.417969 L 137.140625 263.417969 L 137.140625 233.527344 L 167.042969 233.527344 L 167.042969 263.417969 "
        fill-opacity="1" fill-rule="nonzero" />
    <path fill="#141413"
        d="M 196.949219 263.417969 L 167.042969 263.417969 L 167.042969 233.527344 L 196.949219 233.527344 L 196.949219 263.417969 "
        fill-opacity="1" fill-rule="nonzero" />
    <path fill="transparent"
        d="M 226.855469 263.417969 L 196.949219 263.417969 L 196.949219 233.527344 L 226.855469 233.527344 L 226.855469 263.417969 "
        fill-opacity="1" fill-rule="nonzero" />
    <path fill="#141413"
        d="M 256.761719 263.417969 L 226.855469 263.417969 L 226.855469 233.527344 L 256.761719 233.527344 L 256.761719 263.417969 "
        fill-opacity="1" fill-rule="nonzero" />
    <path fill="transparent"
        d="M 286.667969 263.417969 L 256.761719 263.417969 L 256.761719 233.527344 L 286.667969 233.527344 L 286.667969 263.417969 "
        fill-opacity="1" fill-rule="nonzero" />
    <path fill="#141413"
        d="M 316.574219 263.417969 L 286.667969 263.417969 L 286.667969 233.527344 L 316.574219 233.527344 L 316.574219 263.417969 "
        fill-opacity="1" fill-rule="nonzero" />
    <g clip-path="url(#41e673d18a)">
        <path fill="transparent"
            d="M 346.480469 263.417969 L 316.574219 263.417969 L 316.574219 233.527344 L 346.480469 233.527344 L 346.480469 263.417969 "
            fill-opacity="1" fill-rule="nonzero" />
    </g>
    <g clip-path="url(#f475d7511b)">
        <path fill="#141413"
            d="M 376.386719 263.417969 L 346.480469 263.417969 L 346.480469 233.527344 L 376.386719 233.527344 L 376.386719 263.417969 "
            fill-opacity="1" fill-rule="nonzero" />
    </g>
    <g clip-path="url(#ffdd3ccb9d)">
        <path fill="#141413"
            d="M 47.421875 293.304688 L 17.515625 293.304688 L 17.515625 263.417969 L 47.421875 263.417969 L 47.421875 293.304688 "
            fill-opacity="1" fill-rule="nonzero" />
    </g>
    <path fill="transparent"
        d="M 77.328125 293.304688 L 47.421875 293.304688 L 47.421875 263.417969 L 77.328125 263.417969 L 77.328125 293.304688 "
        fill-opacity="1" fill-rule="nonzero" />
    <path fill="#141413"
        d="M 107.234375 293.304688 L 77.328125 293.304688 L 77.328125 263.417969 L 107.234375 263.417969 L 107.234375 293.304688 "
        fill-opacity="1" fill-rule="nonzero" />
    <path fill="transparent"
        d="M 137.140625 293.304688 L 107.234375 293.304688 L 107.234375 263.417969 L 137.140625 263.417969 L 137.140625 293.304688 "
        fill-opacity="1" fill-rule="nonzero" />
    <path fill="#141413"
        d="M 167.042969 293.304688 L 137.140625 293.304688 L 137.140625 263.417969 L 167.042969 263.417969 L 167.042969 293.304688 "
        fill-opacity="1" fill-rule="nonzero" />
    <path fill="transparent"
        d="M 196.949219 293.304688 L 167.042969 293.304688 L 167.042969 263.417969 L 196.949219 263.417969 L 196.949219 293.304688 "
        fill-opacity="1" fill-rule="nonzero" />
    <path fill="#141413"
        d="M 226.855469 293.304688 L 196.949219 293.304688 L 196.949219 263.417969 L 226.855469 263.417969 L 226.855469 293.304688 "
        fill-opacity="1" fill-rule="nonzero" />
    <path fill="transparent"
        d="M 256.761719 293.304688 L 226.855469 293.304688 L 226.855469 263.417969 L 256.761719 263.417969 L 256.761719 293.304688 "
        fill-opacity="1" fill-rule="nonzero" />
    <path fill="#141413"
        d="M 286.667969 293.304688 L 256.761719 293.304688 L 256.761719 263.417969 L 286.667969 263.417969 L 286.667969 293.304688 "
        fill-opacity="1" fill-rule="nonzero" />
    <path fill="transparent"
        d="M 316.574219 293.304688 L 286.667969 293.304688 L 286.667969 263.417969 L 316.574219 263.417969 L 316.574219 293.304688 "
        fill-opacity="1" fill-rule="nonzero" />
    <g clip-path="url(#6ee8d9776b)">
        <path fill="#141413"
            d="M 346.480469 293.304688 L 316.574219 293.304688 L 316.574219 263.417969 L 346.480469 263.417969 L 346.480469 293.304688 "
            fill-opacity="1" fill-rule="nonzero" />
    </g>
    <g clip-path="url(#4480d5b899)">
        <path fill="transparent"
            d="M 376.386719 293.304688 L 346.480469 293.304688 L 346.480469 263.417969 L 376.386719 263.417969 L 376.386719 293.304688 "
            fill-opacity="1" fill-rule="nonzero" />
    </g>
    <g clip-path="url(#10340c1552)">
        <path fill="transparent"
            d="M 47.421875 323.191406 L 17.515625 323.191406 L 17.515625 293.304688 L 47.421875 293.304688 L 47.421875 323.191406 "
            fill-opacity="1" fill-rule="nonzero" />
    </g>
    <path fill="#141413"
        d="M 77.328125 323.191406 L 47.421875 323.191406 L 47.421875 293.304688 L 77.328125 293.304688 L 77.328125 323.191406 "
        fill-opacity="1" fill-rule="nonzero" />
    <path fill="transparent"
        d="M 107.234375 323.191406 L 77.328125 323.191406 L 77.328125 293.304688 L 107.234375 293.304688 L 107.234375 323.191406 "
        fill-opacity="1" fill-rule="nonzero" />
    <path fill="#141413"
        d="M 137.140625 323.191406 L 107.234375 323.191406 L 107.234375 293.304688 L 137.140625 293.304688 L 137.140625 323.191406 "
        fill-opacity="1" fill-rule="nonzero" />
    <path fill="transparent"
        d="M 167.042969 323.191406 L 137.140625 323.191406 L 137.140625 293.304688 L 167.042969 293.304688 L 167.042969 323.191406 "
        fill-opacity="1" fill-rule="nonzero" />
    <path fill="#141413"
        d="M 196.949219 323.191406 L 167.042969 323.191406 L 167.042969 293.304688 L 196.949219 293.304688 L 196.949219 323.191406 "
        fill-opacity="1" fill-rule="nonzero" />
    <path fill="transparent"
        d="M 226.855469 323.191406 L 196.949219 323.191406 L 196.949219 293.304688 L 226.855469 293.304688 L 226.855469 323.191406 "
        fill-opacity="1" fill-rule="nonzero" />
    <path fill="#141413"
        d="M 256.761719 323.191406 L 226.855469 323.191406 L 226.855469 293.304688 L 256.761719 293.304688 L 256.761719 323.191406 "
        fill-opacity="1" fill-rule="nonzero" />
    <path fill="transparent"
        d="M 286.667969 323.191406 L 256.761719 323.191406 L 256.761719 293.304688 L 286.667969 293.304688 L 286.667969 323.191406 "
        fill-opacity="1" fill-rule="nonzero" />
    <path fill="#141413"
        d="M 316.574219 323.191406 L 286.667969 323.191406 L 286.667969 293.304688 L 316.574219 293.304688 L 316.574219 323.191406 "
        fill-opacity="1" fill-rule="nonzero" />
    <g clip-path="url(#f212f29674)">
        <path fill="transparent"
            d="M 346.480469 323.191406 L 316.574219 323.191406 L 316.574219 293.304688 L 346.480469 293.304688 L 346.480469 323.191406 "
            fill-opacity="1" fill-rule="nonzero" />
    </g>
    <g clip-path="url(#6b08ea8e98)">
        <path fill="#141413"
            d="M 376.386719 323.191406 L 346.480469 323.191406 L 346.480469 293.304688 L 376.386719 293.304688 L 376.386719 323.191406 "
            fill-opacity="1" fill-rule="nonzero" />
    </g>
    <g clip-path="url(#e7163e905b)">
        <path fill="#141413"
            d="M 47.421875 353.078125 L 17.515625 353.078125 L 17.515625 323.191406 L 47.421875 323.191406 L 47.421875 353.078125 "
            fill-opacity="1" fill-rule="nonzero" />
    </g>
    <g clip-path="url(#41369e9f78)">
        <path fill="transparent"
            d="M 77.328125 353.078125 L 47.421875 353.078125 L 47.421875 323.191406 L 77.328125 323.191406 L 77.328125 353.078125 "
            fill-opacity="1" fill-rule="nonzero" />
    </g>
    <g clip-path="url(#300ac1fd4b)">
        <path fill="#141413"
            d="M 107.234375 353.078125 L 77.328125 353.078125 L 77.328125 323.191406 L 107.234375 323.191406 L 107.234375 353.078125 "
            fill-opacity="1" fill-rule="nonzero" />
    </g>
    <g clip-path="url(#1f706389eb)">
        <path fill="transparent"
            d="M 137.140625 353.078125 L 107.234375 353.078125 L 107.234375 323.191406 L 137.140625 323.191406 L 137.140625 353.078125 "
            fill-opacity="1" fill-rule="nonzero" />
    </g>
    <g clip-path="url(#ab06da161e)">
        <path fill="#141413"
            d="M 167.042969 353.078125 L 137.140625 353.078125 L 137.140625 323.191406 L 167.042969 323.191406 L 167.042969 353.078125 "
            fill-opacity="1" fill-rule="nonzero" />
    </g>
    <g clip-path="url(#5608f233b8)">
        <path fill="transparent"
            d="M 196.949219 353.078125 L 167.042969 353.078125 L 167.042969 323.191406 L 196.949219 323.191406 L 196.949219 353.078125 "
            fill-opacity="1" fill-rule="nonzero" />
    </g>
    <g clip-path="url(#3b37f05b93)">
        <path fill="#141413"
            d="M 226.855469 353.078125 L 196.949219 353.078125 L 196.949219 323.191406 L 226.855469 323.191406 L 226.855469 353.078125 "
            fill-opacity="1" fill-rule="nonzero" />
    </g>
    <g clip-path="url(#ed889e324b)">
        <path fill="transparent"
            d="M 256.761719 353.078125 L 226.855469 353.078125 L 226.855469 323.191406 L 256.761719 323.191406 L 256.761719 353.078125 "
            fill-opacity="1" fill-rule="nonzero" />
    </g>
    <g clip-path="url(#f676416eb9)">
        <path fill="#141413"
            d="M 286.667969 353.078125 L 256.761719 353.078125 L 256.761719 323.191406 L 286.667969 323.191406 L 286.667969 353.078125 "
            fill-opacity="1" fill-rule="nonzero" />
    </g>
    <g clip-path="url(#81ceb4bd8b)">
        <path fill="transparent"
            d="M 316.574219 353.078125 L 286.667969 353.078125 L 286.667969 323.191406 L 316.574219 323.191406 L 316.574219 353.078125 "
            fill-opacity="1" fill-rule="nonzero" />
    </g>
    <g clip-path="url(#7b879aa64e)">
        <path fill="#141413"
            d="M 346.480469 353.078125 L 316.574219 353.078125 L 316.574219 323.191406 L 346.480469 323.191406 L 346.480469 353.078125 "
            fill-opacity="1" fill-rule="nonzero" />
    </g>
    <g clip-path="url(#f3e0fed858)">
        <path fill="transparent"
            d="M 376.386719 353.078125 L 346.480469 353.078125 L 346.480469 323.191406 L 376.386719 323.191406 L 376.386719 353.078125 "
            fill-opacity="1" fill-rule="nonzero" />
    </g>
</svg>