<svg xmlns="http://www.w3.org/2000/svg" xmlns:xlink="http://www.w3.org/1999/xlink" zoomAndPan="magnify"
    preserveAspectRatio="xMidYMid meet" version="1.0" viewBox="58.38 47.97 249.32 131.25">
    <defs>
        <g />
        <clipPath id="18be033b7e">
            <path
                d="M 58.378906 47.96875 L 191.878906 47.96875 L 191.878906 179.21875 L 58.378906 179.21875 Z M 58.378906 47.96875 "
                clip-rule="nonzero" />
        </clipPath>
        <clipPath id="2f9c9881b6">
            <path
                d="M 155.484375 100.28125 C 155.484375 100.296875 156.035156 106.234375 158.078125 107.460938 C 158.265625 107.574219 158.371094 107.769531 158.378906 107.972656 C 158.382812 108.070312 158.769531 116.105469 147.523438 118.917969 C 147.191406 119 146.855469 118.796875 146.773438 118.464844 C 146.757812 118.402344 146.753906 118.34375 146.753906 118.285156 C 146.742188 117.480469 146.207031 102.289062 122.855469 107.503906 C 122.726562 107.535156 122.601562 107.519531 122.488281 107.476562 C 122.402344 107.441406 92.777344 95.03125 77.0625 122.214844 C 76.890625 122.511719 76.511719 122.613281 76.214844 122.441406 C 75.96875 122.296875 75.855469 122.007812 75.925781 121.742188 C 76.078125 121.019531 78.457031 110.3125 89.625 103.988281 C 83.28125 104.429688 67.964844 106.746094 63.210938 118.703125 C 63.085938 119.023438 62.726562 119.179688 62.410156 119.050781 C 62.144531 118.949219 61.996094 118.683594 62.019531 118.414062 C 62.027344 118.347656 63.851562 96.46875 95.785156 92.199219 C 86.367188 92.277344 71.359375 94.242188 59.394531 104.335938 C 59.132812 104.554688 58.742188 104.519531 58.523438 104.257812 C 58.355469 104.0625 58.335938 103.789062 58.449219 103.574219 L 58.445312 103.574219 C 58.472656 103.523438 66.339844 88.011719 88.667969 85.011719 C 81.746094 84.78125 71.730469 85.265625 62.699219 88.78125 C 62.378906 88.90625 62.019531 88.746094 61.898438 88.425781 C 61.785156 88.140625 61.902344 87.824219 62.15625 87.671875 C 62.210938 87.636719 79.519531 77.046875 99.113281 79.816406 C 91.550781 74.976562 70.699219 60.75 67.621094 49.21875 C 67.53125 48.886719 67.730469 48.546875 68.058594 48.457031 C 68.261719 48.40625 68.46875 48.457031 68.617188 48.582031 C 68.691406 48.644531 93.574219 69.363281 112.816406 76.957031 C 108.894531 72.671875 100.117188 61.84375 97.996094 48.703125 C 97.941406 48.367188 98.171875 48.046875 98.511719 47.992188 C 98.777344 47.953125 99.035156 48.089844 99.15625 48.316406 C 99.65625 49.179688 116.636719 78.175781 138.714844 87.601562 C 138.734375 87.609375 138.75 87.617188 138.765625 87.625 C 138.78125 87.636719 144.277344 90.558594 139.078125 92.355469 C 135.871094 93.46875 128.03125 89.007812 124.648438 86.9375 C 126.074219 89.992188 130.039062 95.851562 138.808594 93.117188 C 140.910156 92.464844 142.75 93.859375 144.996094 95.5625 C 147.492188 97.457031 150.539062 99.769531 154.863281 99.71875 C 155.1875 99.71875 155.453125 99.964844 155.484375 100.28125 Z M 180.625 134.964844 C 171.09375 131.523438 164.625 130.679688 161.226562 132.425781 C 174.71875 141.304688 178.785156 131.671875 191.878906 147.074219 C 171.386719 131.316406 170.121094 149.730469 158.457031 136.5 C 156.480469 134.339844 154.390625 133.023438 152.839844 133.714844 C 147.46875 136.105469 160.453125 145.714844 173.804688 148.40625 C 137.128906 143.402344 156.152344 128.859375 141.582031 122.210938 C 150.648438 123.328125 154.808594 131.394531 164.773438 127.8125 C 161.234375 127.824219 158.113281 127.050781 155.410156 125.492188 C 165.316406 124.542969 173.722656 127.699219 180.625 134.964844 Z M 115.761719 109.054688 C 115.796875 109.820312 116.511719 121.960938 125.078125 127.132812 C 122.570312 123.023438 118.398438 113.628906 128.636719 108.492188 C 128.945312 108.339844 129.316406 108.464844 129.46875 108.769531 C 129.570312 108.972656 129.550781 109.203125 129.4375 109.382812 C 129.410156 109.425781 119.773438 124.117188 137.113281 128.867188 C 137.445312 128.957031 137.640625 129.296875 137.550781 129.628906 C 137.539062 129.671875 137.523438 129.710938 137.503906 129.75 C 137.488281 129.78125 132.085938 140.609375 115.648438 136.339844 C 115.316406 136.253906 115.117188 135.914062 115.203125 135.582031 C 115.238281 135.449219 115.3125 135.339844 115.410156 135.257812 L 118.992188 131.980469 C 117.601562 130.570312 113.117188 126.324219 109.40625 126.210938 C 109.0625 126.203125 108.792969 125.917969 108.804688 125.574219 C 108.808594 125.40625 108.878906 125.257812 108.988281 125.148438 L 108.984375 125.148438 C 108.996094 125.136719 111.671875 122.449219 114.492188 122.449219 C 112.320312 120.378906 108.246094 117.320312 103.9375 118.398438 C 103.605469 118.480469 103.269531 118.277344 103.1875 117.945312 C 103.152344 117.792969 103.171875 117.640625 103.238281 117.515625 C 103.355469 117.257812 104.324219 115.261719 106.367188 114.097656 C 100.492188 114.164062 89.382812 117.328125 84.011719 138.816406 C 84.007812 138.828125 84.003906 138.835938 84.003906 138.847656 C 83.148438 142.503906 84.246094 153.109375 91.449219 162.816406 C 95.960938 168.894531 102.875 174.597656 113.21875 177.984375 C 113.546875 178.089844 113.722656 178.441406 113.617188 178.769531 C 113.519531 179.070312 113.210938 179.246094 112.910156 179.1875 C 112.789062 179.164062 71.5625 171.445312 76.679688 135.753906 C 76.683594 135.730469 76.6875 135.710938 76.691406 135.6875 C 76.71875 135.558594 76.757812 135.386719 76.804688 135.171875 C 80.0625 120.507812 88.960938 113.664062 97.398438 110.566406 C 105.8125 107.476562 113.808594 108.128906 115.234375 108.425781 L 115.238281 108.429688 L 115.238281 108.425781 L 115.269531 108.433594 C 115.566406 108.5 115.765625 108.761719 115.761719 109.054688 Z M 115.761719 109.054688 "
                clip-rule="nonzero" />
        </clipPath>
        <linearGradient x1="7269.378833" gradientTransform="matrix(0.0201687, 0, 0, 0.0202079, 58.377246, 47.985659)"
            y1="5406.738017" x2="-467.196863" gradientUnits="userSpaceOnUse" y2="780.354569" id="4d0f67f272">
            <stop stop-opacity="1" stop-color="rgb(76.899719%, 23.498535%, 11.799622%)" offset="0" />
            <stop stop-opacity="1" stop-color="rgb(76.899719%, 23.498535%, 11.799622%)" offset="0.125" />
            <stop stop-opacity="1" stop-color="rgb(76.899719%, 23.498535%, 11.799622%)" offset="0.1875" />
            <stop stop-opacity="1" stop-color="rgb(76.899719%, 23.498535%, 11.799622%)" offset="0.21875" />
            <stop stop-opacity="1" stop-color="rgb(76.751709%, 23.506165%, 11.843872%)" offset="0.226563" />
            <stop stop-opacity="1" stop-color="rgb(76.234436%, 23.530579%, 12.002563%)" offset="0.230469" />
            <stop stop-opacity="1" stop-color="rgb(75.865173%, 23.547363%, 12.115479%)" offset="0.234375" />
            <stop stop-opacity="1" stop-color="rgb(75.494385%, 23.564148%, 12.228394%)" offset="0.238281" />
            <stop stop-opacity="1" stop-color="rgb(75.125122%, 23.582458%, 12.341309%)" offset="0.242188" />
            <stop stop-opacity="1" stop-color="rgb(74.755859%, 23.599243%, 12.454224%)" offset="0.246094" />
            <stop stop-opacity="1" stop-color="rgb(74.386597%, 23.616028%, 12.567139%)" offset="0.25" />
            <stop stop-opacity="1" stop-color="rgb(74.015808%, 23.632812%, 12.680054%)" offset="0.253906" />
            <stop stop-opacity="1" stop-color="rgb(73.646545%, 23.651123%, 12.792969%)" offset="0.257813" />
            <stop stop-opacity="1" stop-color="rgb(73.277283%, 23.667908%, 12.905884%)" offset="0.261719" />
            <stop stop-opacity="1" stop-color="rgb(72.90802%, 23.686218%, 13.018799%)" offset="0.265625" />
            <stop stop-opacity="1" stop-color="rgb(72.538757%, 23.703003%, 13.131714%)" offset="0.269531" />
            <stop stop-opacity="1" stop-color="rgb(72.169495%, 23.719788%, 13.244629%)" offset="0.273438" />
            <stop stop-opacity="1" stop-color="rgb(71.798706%, 23.736572%, 13.357544%)" offset="0.277344" />
            <stop stop-opacity="1" stop-color="rgb(71.429443%, 23.754883%, 13.470459%)" offset="0.28125" />
            <stop stop-opacity="1" stop-color="rgb(71.060181%, 23.771667%, 13.583374%)" offset="0.285156" />
            <stop stop-opacity="1" stop-color="rgb(70.690918%, 23.788452%, 13.696289%)" offset="0.289063" />
            <stop stop-opacity="1" stop-color="rgb(70.320129%, 23.805237%, 13.809204%)" offset="0.292969" />
            <stop stop-opacity="1" stop-color="rgb(69.950867%, 23.823547%, 13.922119%)" offset="0.296875" />
            <stop stop-opacity="1" stop-color="rgb(69.581604%, 23.840332%, 14.035034%)" offset="0.300781" />
            <stop stop-opacity="1" stop-color="rgb(69.212341%, 23.858643%, 14.147949%)" offset="0.304688" />
            <stop stop-opacity="1" stop-color="rgb(68.841553%, 23.875427%, 14.260864%)" offset="0.308594" />
            <stop stop-opacity="1" stop-color="rgb(68.47229%, 23.892212%, 14.373779%)" offset="0.3125" />
            <stop stop-opacity="1" stop-color="rgb(68.103027%, 23.908997%, 14.485168%)" offset="0.316406" />
            <stop stop-opacity="1" stop-color="rgb(67.733765%, 23.927307%, 14.598083%)" offset="0.320312" />
            <stop stop-opacity="1" stop-color="rgb(67.364502%, 23.944092%, 14.710999%)" offset="0.324219" />
            <stop stop-opacity="1" stop-color="rgb(66.995239%, 23.962402%, 14.823914%)" offset="0.328125" />
            <stop stop-opacity="1" stop-color="rgb(66.624451%, 23.979187%, 14.936829%)" offset="0.332031" />
            <stop stop-opacity="1" stop-color="rgb(66.255188%, 23.995972%, 15.049744%)" offset="0.335938" />
            <stop stop-opacity="1" stop-color="rgb(65.885925%, 24.012756%, 15.162659%)" offset="0.339844" />
            <stop stop-opacity="1" stop-color="rgb(65.516663%, 24.031067%, 15.275574%)" offset="0.34375" />
            <stop stop-opacity="1" stop-color="rgb(65.145874%, 24.047852%, 15.388489%)" offset="0.347656" />
            <stop stop-opacity="1" stop-color="rgb(64.776611%, 24.064636%, 15.501404%)" offset="0.351562" />
            <stop stop-opacity="1" stop-color="rgb(64.407349%, 24.081421%, 15.614319%)" offset="0.355469" />
            <stop stop-opacity="1" stop-color="rgb(64.038086%, 24.099731%, 15.727234%)" offset="0.359375" />
            <stop stop-opacity="1" stop-color="rgb(63.667297%, 24.116516%, 15.840149%)" offset="0.363281" />
            <stop stop-opacity="1" stop-color="rgb(63.298035%, 24.134827%, 15.953064%)" offset="0.367188" />
            <stop stop-opacity="1" stop-color="rgb(62.928772%, 24.151611%, 16.065979%)" offset="0.371094" />
            <stop stop-opacity="1" stop-color="rgb(62.559509%, 24.168396%, 16.178894%)" offset="0.375" />
            <stop stop-opacity="1" stop-color="rgb(62.190247%, 24.185181%, 16.291809%)" offset="0.378906" />
            <stop stop-opacity="1" stop-color="rgb(61.820984%, 24.203491%, 16.404724%)" offset="0.382812" />
            <stop stop-opacity="1" stop-color="rgb(61.450195%, 24.220276%, 16.517639%)" offset="0.386719" />
            <stop stop-opacity="1" stop-color="rgb(61.080933%, 24.237061%, 16.630554%)" offset="0.390625" />
            <stop stop-opacity="1" stop-color="rgb(60.71167%, 24.253845%, 16.743469%)" offset="0.394531" />
            <stop stop-opacity="1" stop-color="rgb(60.342407%, 24.272156%, 16.856384%)" offset="0.398438" />
            <stop stop-opacity="1" stop-color="rgb(59.971619%, 24.28894%, 16.969299%)" offset="0.402344" />
            <stop stop-opacity="1" stop-color="rgb(59.602356%, 24.307251%, 17.082214%)" offset="0.40625" />
            <stop stop-opacity="1" stop-color="rgb(59.233093%, 24.324036%, 17.195129%)" offset="0.410156" />
            <stop stop-opacity="1" stop-color="rgb(58.863831%, 24.34082%, 17.308044%)" offset="0.414062" />
            <stop stop-opacity="1" stop-color="rgb(58.494568%, 24.357605%, 17.420959%)" offset="0.417969" />
            <stop stop-opacity="1" stop-color="rgb(58.125305%, 24.375916%, 17.533875%)" offset="0.421875" />
            <stop stop-opacity="1" stop-color="rgb(57.754517%, 24.3927%, 17.64679%)" offset="0.425781" />
            <stop stop-opacity="1" stop-color="rgb(57.385254%, 24.411011%, 17.759705%)" offset="0.429688" />
            <stop stop-opacity="1" stop-color="rgb(57.015991%, 24.427795%, 17.87262%)" offset="0.433594" />
            <stop stop-opacity="1" stop-color="rgb(56.646729%, 24.44458%, 17.985535%)" offset="0.4375" />
            <stop stop-opacity="1" stop-color="rgb(56.27594%, 24.461365%, 18.09845%)" offset="0.441406" />
            <stop stop-opacity="1" stop-color="rgb(55.906677%, 24.479675%, 18.211365%)" offset="0.445312" />
            <stop stop-opacity="1" stop-color="rgb(55.537415%, 24.49646%, 18.32428%)" offset="0.449219" />
            <stop stop-opacity="1" stop-color="rgb(55.168152%, 24.513245%, 18.437195%)" offset="0.453125" />
            <stop stop-opacity="1" stop-color="rgb(54.797363%, 24.530029%, 18.55011%)" offset="0.457031" />
            <stop stop-opacity="1" stop-color="rgb(54.428101%, 24.54834%, 18.663025%)" offset="0.460938" />
            <stop stop-opacity="1" stop-color="rgb(54.058838%, 24.565125%, 18.77594%)" offset="0.464844" />
            <stop stop-opacity="1" stop-color="rgb(53.689575%, 24.583435%, 18.888855%)" offset="0.46875" />
            <stop stop-opacity="1" stop-color="rgb(53.320312%, 24.60022%, 19.00177%)" offset="0.472656" />
            <stop stop-opacity="1" stop-color="rgb(52.95105%, 24.617004%, 19.114685%)" offset="0.476562" />
            <stop stop-opacity="1" stop-color="rgb(52.580261%, 24.633789%, 19.2276%)" offset="0.480469" />
            <stop stop-opacity="1" stop-color="rgb(52.210999%, 24.6521%, 19.340515%)" offset="0.484375" />
            <stop stop-opacity="1" stop-color="rgb(51.841736%, 24.668884%, 19.45343%)" offset="0.488281" />
            <stop stop-opacity="1" stop-color="rgb(51.472473%, 24.687195%, 19.566345%)" offset="0.492188" />
            <stop stop-opacity="1" stop-color="rgb(51.101685%, 24.703979%, 19.67926%)" offset="0.496094" />
            <stop stop-opacity="1" stop-color="rgb(50.732422%, 24.720764%, 19.792175%)" offset="0.5" />
            <stop stop-opacity="1" stop-color="rgb(50.363159%, 24.737549%, 19.90509%)" offset="0.503906" />
            <stop stop-opacity="1" stop-color="rgb(49.993896%, 24.755859%, 20.018005%)" offset="0.507813" />
            <stop stop-opacity="1" stop-color="rgb(49.623108%, 24.772644%, 20.13092%)" offset="0.511719" />
            <stop stop-opacity="1" stop-color="rgb(49.253845%, 24.789429%, 20.243835%)" offset="0.515625" />
            <stop stop-opacity="1" stop-color="rgb(48.884583%, 24.806213%, 20.35675%)" offset="0.519531" />
            <stop stop-opacity="1" stop-color="rgb(48.51532%, 24.824524%, 20.469666%)" offset="0.523438" />
            <stop stop-opacity="1" stop-color="rgb(48.146057%, 24.841309%, 20.582581%)" offset="0.527344" />
            <stop stop-opacity="1" stop-color="rgb(47.776794%, 24.859619%, 20.695496%)" offset="0.53125" />
            <stop stop-opacity="1" stop-color="rgb(47.406006%, 24.876404%, 20.808411%)" offset="0.535156" />
            <stop stop-opacity="1" stop-color="rgb(47.036743%, 24.893188%, 20.921326%)" offset="0.539063" />
            <stop stop-opacity="1" stop-color="rgb(46.66748%, 24.909973%, 21.032715%)" offset="0.542969" />
            <stop stop-opacity="1" stop-color="rgb(46.298218%, 24.928284%, 21.14563%)" offset="0.546875" />
            <stop stop-opacity="1" stop-color="rgb(45.927429%, 24.945068%, 21.258545%)" offset="0.550781" />
            <stop stop-opacity="1" stop-color="rgb(45.558167%, 24.961853%, 21.37146%)" offset="0.554688" />
            <stop stop-opacity="1" stop-color="rgb(45.188904%, 24.978638%, 21.484375%)" offset="0.558594" />
            <stop stop-opacity="1" stop-color="rgb(44.819641%, 24.996948%, 21.59729%)" offset="0.5625" />
            <stop stop-opacity="1" stop-color="rgb(44.450378%, 25.013733%, 21.710205%)" offset="0.566406" />
            <stop stop-opacity="1" stop-color="rgb(44.081116%, 25.032043%, 21.82312%)" offset="0.570313" />
            <stop stop-opacity="1" stop-color="rgb(43.710327%, 25.048828%, 21.936035%)" offset="0.574219" />
            <stop stop-opacity="1" stop-color="rgb(43.341064%, 25.065613%, 22.04895%)" offset="0.578125" />
            <stop stop-opacity="1" stop-color="rgb(42.971802%, 25.082397%, 22.161865%)" offset="0.582031" />
            <stop stop-opacity="1" stop-color="rgb(42.602539%, 25.100708%, 22.27478%)" offset="0.585938" />
            <stop stop-opacity="1" stop-color="rgb(42.23175%, 25.117493%, 22.387695%)" offset="0.589844" />
            <stop stop-opacity="1" stop-color="rgb(41.862488%, 25.135803%, 22.50061%)" offset="0.59375" />
            <stop stop-opacity="1" stop-color="rgb(41.493225%, 25.152588%, 22.613525%)" offset="0.597656" />
            <stop stop-opacity="1" stop-color="rgb(41.123962%, 25.169373%, 22.72644%)" offset="0.601562" />
            <stop stop-opacity="1" stop-color="rgb(40.753174%, 25.186157%, 22.839355%)" offset="0.605469" />
            <stop stop-opacity="1" stop-color="rgb(40.383911%, 25.204468%, 22.952271%)" offset="0.609375" />
            <stop stop-opacity="1" stop-color="rgb(40.014648%, 25.221252%, 23.065186%)" offset="0.613281" />
            <stop stop-opacity="1" stop-color="rgb(39.645386%, 25.238037%, 23.178101%)" offset="0.617188" />
            <stop stop-opacity="1" stop-color="rgb(39.276123%, 25.254822%, 23.291016%)" offset="0.621094" />
            <stop stop-opacity="1" stop-color="rgb(38.90686%, 25.273132%, 23.403931%)" offset="0.625" />
            <stop stop-opacity="1" stop-color="rgb(38.536072%, 25.289917%, 23.516846%)" offset="0.628906" />
            <stop stop-opacity="1" stop-color="rgb(38.166809%, 25.308228%, 23.629761%)" offset="0.632813" />
            <stop stop-opacity="1" stop-color="rgb(37.797546%, 25.325012%, 23.742676%)" offset="0.636719" />
            <stop stop-opacity="1" stop-color="rgb(37.428284%, 25.341797%, 23.855591%)" offset="0.640625" />
            <stop stop-opacity="1" stop-color="rgb(37.057495%, 25.358582%, 23.968506%)" offset="0.644531" />
            <stop stop-opacity="1" stop-color="rgb(36.688232%, 25.376892%, 24.081421%)" offset="0.648438" />
            <stop stop-opacity="1" stop-color="rgb(36.31897%, 25.393677%, 24.194336%)" offset="0.652344" />
            <stop stop-opacity="1" stop-color="rgb(35.949707%, 25.411987%, 24.307251%)" offset="0.65625" />
            <stop stop-opacity="1" stop-color="rgb(35.578918%, 25.428772%, 24.420166%)" offset="0.660156" />
            <stop stop-opacity="1" stop-color="rgb(35.209656%, 25.445557%, 24.533081%)" offset="0.664063" />
            <stop stop-opacity="1" stop-color="rgb(34.840393%, 25.462341%, 24.645996%)" offset="0.667969" />
            <stop stop-opacity="1" stop-color="rgb(34.47113%, 25.480652%, 24.758911%)" offset="0.671875" />
            <stop stop-opacity="1" stop-color="rgb(34.101868%, 25.497437%, 24.871826%)" offset="0.675781" />
            <stop stop-opacity="1" stop-color="rgb(33.732605%, 25.514221%, 24.984741%)" offset="0.679688" />
            <stop stop-opacity="1" stop-color="rgb(33.361816%, 25.531006%, 25.097656%)" offset="0.683594" />
            <stop stop-opacity="1" stop-color="rgb(32.992554%, 25.549316%, 25.210571%)" offset="0.6875" />
            <stop stop-opacity="1" stop-color="rgb(32.623291%, 25.566101%, 25.323486%)" offset="0.691406" />
            <stop stop-opacity="1" stop-color="rgb(32.254028%, 25.584412%, 25.436401%)" offset="0.695313" />
            <stop stop-opacity="1" stop-color="rgb(31.88324%, 25.601196%, 25.549316%)" offset="0.699219" />
            <stop stop-opacity="1" stop-color="rgb(31.513977%, 25.617981%, 25.662231%)" offset="0.703125" />
            <stop stop-opacity="1" stop-color="rgb(31.144714%, 25.634766%, 25.775146%)" offset="0.707031" />
            <stop stop-opacity="1" stop-color="rgb(30.775452%, 25.653076%, 25.888062%)" offset="0.710938" />
            <stop stop-opacity="1" stop-color="rgb(30.404663%, 25.669861%, 26.000977%)" offset="0.714844" />
            <stop stop-opacity="1" stop-color="rgb(30.0354%, 25.686646%, 26.113892%)" offset="0.71875" />
            <stop stop-opacity="1" stop-color="rgb(29.666138%, 25.70343%, 26.226807%)" offset="0.722656" />
            <stop stop-opacity="1" stop-color="rgb(29.296875%, 25.721741%, 26.339722%)" offset="0.726563" />
            <stop stop-opacity="1" stop-color="rgb(28.927612%, 25.738525%, 26.452637%)" offset="0.730469" />
            <stop stop-opacity="1" stop-color="rgb(28.55835%, 25.756836%, 26.565552%)" offset="0.734375" />
            <stop stop-opacity="1" stop-color="rgb(28.187561%, 25.773621%, 26.678467%)" offset="0.738281" />
            <stop stop-opacity="1" stop-color="rgb(27.818298%, 25.790405%, 26.791382%)" offset="0.742188" />
            <stop stop-opacity="1" stop-color="rgb(27.449036%, 25.80719%, 26.904297%)" offset="0.746094" />
            <stop stop-opacity="1" stop-color="rgb(27.079773%, 25.8255%, 27.017212%)" offset="0.75" />
            <stop stop-opacity="1" stop-color="rgb(26.708984%, 25.842285%, 27.130127%)" offset="0.753906" />
            <stop stop-opacity="1" stop-color="rgb(26.339722%, 25.860596%, 27.243042%)" offset="0.757812" />
            <stop stop-opacity="1" stop-color="rgb(25.970459%, 25.87738%, 27.355957%)" offset="0.761719" />
            <stop stop-opacity="1" stop-color="rgb(25.601196%, 25.894165%, 27.468872%)" offset="0.765625" />
            <stop stop-opacity="1" stop-color="rgb(25.549316%, 25.895691%, 27.484131%)" offset="0.78125" />
            <stop stop-opacity="1" stop-color="rgb(25.498962%, 25.898743%, 27.49939%)" offset="0.8125" />
            <stop stop-opacity="1" stop-color="rgb(25.498962%, 25.898743%, 27.49939%)" offset="0.875" />
            <stop stop-opacity="1" stop-color="rgb(25.498962%, 25.898743%, 27.49939%)" offset="1" />
        </linearGradient>
    </defs>
    <g fill="#fff" fill-opacity="1">
        <g transform="translate(112.51184, 88.951667)">
            <g>
                <path
                    d="M 12.609375 0 L 12.609375 -20.703125 C 12.609375 -21.171875 12.519531 -21.5625 12.34375 -21.875 C 12.164062 -22.1875 11.875 -22.546875 11.46875 -22.953125 C 11.0625 -23.359375 10.738281 -23.5625 10.5 -23.5625 C 9.957031 -23.5625 9.238281 -23.019531 8.34375 -21.9375 C 8.425781 -21.25 8.46875 -20.53125 8.46875 -19.78125 L 8.46875 0 L 2.84375 0 L 2.84375 -17.421875 C 2.84375 -19.722656 2.6875 -21.332031 2.375 -22.25 C 2.0625 -23.175781 1.40625 -24.273438 0.40625 -25.546875 L 5.296875 -28.96875 C 6.160156 -28.34375 6.78125 -27.597656 7.15625 -26.734375 C 9.113281 -28.222656 10.5 -28.96875 11.3125 -28.96875 C 12.125 -28.96875 13.65625 -27.925781 15.90625 -25.84375 C 18.15625 -27.925781 19.742188 -28.96875 20.671875 -28.96875 C 21.347656 -28.96875 22.503906 -28.253906 24.140625 -26.828125 C 25.785156 -25.410156 26.8125 -24.410156 27.21875 -23.828125 C 27.625 -23.242188 27.828125 -22.476562 27.828125 -21.53125 L 27.828125 0 L 22.21875 0 L 22.21875 -20.703125 C 22.21875 -21.222656 22.117188 -21.625 21.921875 -21.90625 C 21.734375 -22.195312 21.414062 -22.546875 20.96875 -22.953125 C 20.519531 -23.359375 20.125 -23.5625 19.78125 -23.5625 C 19.445312 -23.5625 18.914062 -23.113281 18.1875 -22.21875 C 18.21875 -22.082031 18.234375 -21.851562 18.234375 -21.53125 L 18.234375 0 Z M 12.609375 0 " />
            </g>
        </g>
    </g>
    <g fill="#fff" fill-opacity="1">
        <g transform="translate(146.81235, 88.951667)">
            <g>
                <path
                    d="M 13.8125 -2.171875 C 11.875 -0.398438 10.414062 0.484375 9.4375 0.484375 C 8.457031 0.484375 7 -0.398438 5.0625 -2.171875 C 3.125 -3.953125 1.925781 -5.398438 1.46875 -6.515625 C 1.164062 -7.210938 1.015625 -8.988281 1.015625 -11.84375 L 1.015625 -16.640625 C 1.015625 -19.484375 1.164062 -21.257812 1.46875 -21.96875 C 1.925781 -23.082031 3.125 -24.523438 5.0625 -26.296875 C 7 -28.078125 8.457031 -28.96875 9.4375 -28.96875 C 10.414062 -28.96875 11.875 -28.078125 13.8125 -26.296875 C 15.75 -24.523438 16.953125 -23.082031 17.421875 -21.96875 C 17.710938 -21.257812 17.859375 -19.484375 17.859375 -16.640625 L 17.859375 -11.84375 C 17.859375 -8.988281 17.710938 -7.210938 17.421875 -6.515625 C 16.953125 -5.398438 15.75 -3.953125 13.8125 -2.171875 Z M 8.078125 -6.15625 C 8.609375 -5.601562 9.0625 -5.328125 9.4375 -5.328125 C 9.820312 -5.328125 10.273438 -5.601562 10.796875 -6.15625 C 11.328125 -6.71875 11.703125 -7.25 11.921875 -7.75 C 12.140625 -8.25 12.25 -9.613281 12.25 -11.84375 L 12.25 -16.640625 C 12.25 -18.867188 12.140625 -20.234375 11.921875 -20.734375 C 11.703125 -21.234375 11.328125 -21.757812 10.796875 -22.3125 C 10.273438 -22.875 9.820312 -23.15625 9.4375 -23.15625 C 9.0625 -23.15625 8.609375 -22.875 8.078125 -22.3125 C 7.546875 -21.757812 7.171875 -21.234375 6.953125 -20.734375 C 6.734375 -20.234375 6.625 -18.867188 6.625 -16.640625 L 6.625 -11.84375 C 6.625 -9.613281 6.734375 -8.25 6.953125 -7.75 C 7.171875 -7.25 7.546875 -6.71875 8.078125 -6.15625 Z M 8.078125 -6.15625 " />
            </g>
        </g>
    </g>
    <g fill="#fff" fill-opacity="1">
        <g transform="translate(170.127231, 88.951667)">
            <g>
                <path
                    d="M 8.421875 -21.53125 L 8.46875 -19.78125 L 8.46875 0 L 2.84375 0 L 2.84375 -17.421875 C 2.84375 -19.691406 2.6875 -21.285156 2.375 -22.203125 C 2.0625 -23.128906 1.40625 -24.242188 0.40625 -25.546875 L 5.296875 -28.96875 C 6.078125 -28.457031 6.804688 -27.578125 7.484375 -26.328125 C 9.628906 -28.085938 11.082031 -28.96875 11.84375 -28.96875 C 12.601562 -28.96875 13.800781 -28.253906 15.4375 -26.828125 C 17.082031 -25.410156 18.109375 -24.410156 18.515625 -23.828125 C 18.921875 -23.242188 19.125 -22.476562 19.125 -21.53125 L 19.125 0 L 13.46875 0 L 13.46875 -20.703125 C 13.46875 -20.953125 13.363281 -21.257812 13.15625 -21.625 C 12.957031 -21.988281 12.644531 -22.398438 12.21875 -22.859375 C 11.800781 -23.328125 11.410156 -23.5625 11.046875 -23.5625 C 10.679688 -23.5625 10.226562 -23.347656 9.6875 -22.921875 C 9.144531 -22.503906 8.722656 -22.039062 8.421875 -21.53125 Z M 8.421875 -21.53125 " />
            </g>
        </g>
    </g>
    <g fill="#fff" fill-opacity="1">
        <g transform="translate(195.720619, 88.951667)">
            <g>
                <path
                    d="M 17.421875 -11.46875 C 17.710938 -10.976562 17.859375 -10.007812 17.859375 -8.5625 C 17.859375 -7.113281 17.5625 -5.882812 16.96875 -4.875 C 16.425781 -4.09375 15.269531 -3.003906 13.5 -1.609375 C 11.738281 -0.210938 10.441406 0.484375 9.609375 0.484375 C 8.109375 0.484375 6.394531 -0.289062 4.46875 -1.84375 C 2.550781 -3.40625 1.332031 -5.125 0.8125 -7 L 5.328125 -10.09375 C 5.765625 -8.8125 6.457031 -7.640625 7.40625 -6.578125 C 8.351562 -5.523438 9.023438 -5 9.421875 -5 C 9.816406 -5 10.238281 -5.128906 10.6875 -5.390625 C 11.132812 -5.648438 11.476562 -5.914062 11.71875 -6.1875 C 12.070312 -6.613281 12.25 -7.289062 12.25 -8.21875 C 12.25 -9.144531 12.03125 -9.710938 11.59375 -9.921875 C 11.050781 -10.390625 10 -11 8.4375 -11.75 C 6.882812 -12.507812 5.441406 -13.332031 4.109375 -14.21875 C 2.773438 -15.101562 1.925781 -15.960938 1.5625 -16.796875 C 1.195312 -17.640625 1.015625 -18.734375 1.015625 -20.078125 C 1.015625 -21.421875 1.3125 -22.59375 1.90625 -23.59375 C 2.445312 -24.382812 3.597656 -25.476562 5.359375 -26.875 C 7.128906 -28.269531 8.4375 -28.96875 9.28125 -28.96875 C 10.769531 -28.96875 12.476562 -28.1875 14.40625 -26.625 C 16.332031 -25.070312 17.550781 -23.359375 18.0625 -21.484375 L 13.546875 -18.34375 C 13.109375 -19.625 12.414062 -20.800781 11.46875 -21.875 C 10.519531 -22.945312 9.847656 -23.484375 9.453125 -23.484375 C 9.066406 -23.484375 8.640625 -23.359375 8.171875 -23.109375 C 7.710938 -22.867188 7.335938 -22.5625 7.046875 -22.1875 C 6.765625 -21.820312 6.625 -21.195312 6.625 -20.3125 C 6.625 -19.4375 6.898438 -18.847656 7.453125 -18.546875 C 7.878906 -18.171875 8.867188 -17.578125 10.421875 -16.765625 C 14.378906 -14.597656 16.710938 -12.832031 17.421875 -11.46875 Z M 17.421875 -11.46875 " />
            </g>
        </g>
    </g>
    <g fill="#fff" fill-opacity="1">
        <g transform="translate(219.0355, 88.951667)">
            <g>
                <path
                    d="M 16.6875 -28.484375 L 16.6875 -23.59375 L 11.390625 -23.59375 L 11.390625 0 L 5.78125 0 L 5.78125 -23.59375 L 0.484375 -23.59375 L 0.484375 -28.484375 Z M 16.6875 -28.484375 " />
            </g>
        </g>
    </g>
    <g fill="#fff" fill-opacity="1">
        <g transform="translate(240.641509, 88.951667)">
            <g>
                <path
                    d="M 7.65625 -17.328125 L 14.9375 -17.328125 L 14.9375 -12.40625 L 7.65625 -12.40625 L 7.65625 -4.921875 L 17.375 -4.921875 L 17.375 0 L 2.03125 0 L 2.03125 -25.0625 L 7.65625 -28.96875 L 16.71875 -28.96875 L 16.71875 -24 L 9.15625 -24 L 7.65625 -22.953125 Z M 7.65625 -17.328125 " />
            </g>
        </g>
    </g>
    <g fill="#fff" fill-opacity="1">
        <g transform="translate(263.468144, 88.951667)">
            <g>
                <path
                    d="M 7.328125 -26.734375 C 9.492188 -28.222656 10.96875 -28.96875 11.75 -28.96875 C 12.539062 -28.96875 13.753906 -28.253906 15.390625 -26.828125 C 17.035156 -25.410156 18.0625 -24.410156 18.46875 -23.828125 C 18.875 -23.242188 19.078125 -22.476562 19.078125 -21.53125 C 19.078125 -19.675781 18.929688 -18.578125 18.640625 -18.234375 C 18.066406 -17.359375 17.179688 -16.335938 15.984375 -15.171875 C 17.640625 -13.597656 18.671875 -12.394531 19.078125 -11.5625 C 19.296875 -10.988281 19.523438 -9.253906 19.765625 -6.359375 C 20.015625 -3.472656 20.140625 -1.351562 20.140625 0 L 14.03125 0 C 14.03125 -1.21875 13.921875 -3.128906 13.703125 -5.734375 C 13.492188 -8.335938 13.257812 -9.910156 13 -10.453125 C 12.738281 -10.992188 12.429688 -11.46875 12.078125 -11.875 L 8.46875 -11.875 L 8.46875 0 L 2.84375 0 L 2.84375 -17.828125 C 2.84375 -20.015625 2.6875 -21.535156 2.375 -22.390625 C 2.0625 -23.253906 1.40625 -24.304688 0.40625 -25.546875 L 5.296875 -28.96875 C 6.160156 -28.394531 6.835938 -27.648438 7.328125 -26.734375 Z M 8.46875 -19.78125 L 8.46875 -16.640625 L 10.046875 -16.640625 C 10.429688 -16.640625 10.921875 -16.9375 11.515625 -17.53125 C 12.109375 -18.132812 12.492188 -18.644531 12.671875 -19.0625 C 12.847656 -19.476562 12.9375 -19.914062 12.9375 -20.375 C 12.9375 -20.84375 12.847656 -21.257812 12.671875 -21.625 C 12.492188 -21.988281 12.242188 -22.398438 11.921875 -22.859375 C 11.597656 -23.328125 11.328125 -23.5625 11.109375 -23.5625 C 10.378906 -23.5625 9.457031 -23.382812 8.34375 -23.03125 C 8.425781 -21.96875 8.46875 -20.882812 8.46875 -19.78125 Z M 8.46875 -19.78125 " />
            </g>
        </g>
    </g>
    <g fill="#fff" fill-opacity="1">
        <g transform="translate(289.631145, 88.951667)">
            <g>
                <path
                    d="M 17.421875 -11.46875 C 17.710938 -10.976562 17.859375 -10.007812 17.859375 -8.5625 C 17.859375 -7.113281 17.5625 -5.882812 16.96875 -4.875 C 16.425781 -4.09375 15.269531 -3.003906 13.5 -1.609375 C 11.738281 -0.210938 10.441406 0.484375 9.609375 0.484375 C 8.109375 0.484375 6.394531 -0.289062 4.46875 -1.84375 C 2.550781 -3.40625 1.332031 -5.125 0.8125 -7 L 5.328125 -10.09375 C 5.765625 -8.8125 6.457031 -7.640625 7.40625 -6.578125 C 8.351562 -5.523438 9.023438 -5 9.421875 -5 C 9.816406 -5 10.238281 -5.128906 10.6875 -5.390625 C 11.132812 -5.648438 11.476562 -5.914062 11.71875 -6.1875 C 12.070312 -6.613281 12.25 -7.289062 12.25 -8.21875 C 12.25 -9.144531 12.03125 -9.710938 11.59375 -9.921875 C 11.050781 -10.390625 10 -11 8.4375 -11.75 C 6.882812 -12.507812 5.441406 -13.332031 4.109375 -14.21875 C 2.773438 -15.101562 1.925781 -15.960938 1.5625 -16.796875 C 1.195312 -17.640625 1.015625 -18.734375 1.015625 -20.078125 C 1.015625 -21.421875 1.3125 -22.59375 1.90625 -23.59375 C 2.445312 -24.382812 3.597656 -25.476562 5.359375 -26.875 C 7.128906 -28.269531 8.4375 -28.96875 9.28125 -28.96875 C 10.769531 -28.96875 12.476562 -28.1875 14.40625 -26.625 C 16.332031 -25.070312 17.550781 -23.359375 18.0625 -21.484375 L 13.546875 -18.34375 C 13.109375 -19.625 12.414062 -20.800781 11.46875 -21.875 C 10.519531 -22.945312 9.847656 -23.484375 9.453125 -23.484375 C 9.066406 -23.484375 8.640625 -23.359375 8.171875 -23.109375 C 7.710938 -22.867188 7.335938 -22.5625 7.046875 -22.1875 C 6.765625 -21.820312 6.625 -21.195312 6.625 -20.3125 C 6.625 -19.4375 6.898438 -18.847656 7.453125 -18.546875 C 7.878906 -18.171875 8.867188 -17.578125 10.421875 -16.765625 C 14.378906 -14.597656 16.710938 -12.832031 17.421875 -11.46875 Z M 17.421875 -11.46875 " />
            </g>
        </g>
    </g>
    <g fill="#fff" fill-opacity="1">
        <g transform="translate(128.071615, 168.210164)">
            <g>
                <path
                    d="M 13.8125 -2.171875 C 11.875 -0.398438 10.414062 0.484375 9.4375 0.484375 C 8.457031 0.484375 7 -0.398438 5.0625 -2.171875 C 3.125 -3.953125 1.925781 -5.398438 1.46875 -6.515625 C 1.164062 -7.210938 1.015625 -8.988281 1.015625 -11.84375 L 1.015625 -16.640625 C 1.015625 -19.484375 1.164062 -21.257812 1.46875 -21.96875 C 1.925781 -23.082031 3.125 -24.523438 5.0625 -26.296875 C 7 -28.078125 8.457031 -28.96875 9.4375 -28.96875 C 10.414062 -28.96875 11.875 -28.078125 13.8125 -26.296875 C 15.75 -24.523438 16.953125 -23.082031 17.421875 -21.96875 C 17.710938 -21.257812 17.859375 -19.484375 17.859375 -16.640625 L 17.859375 -11.84375 C 17.859375 -8.988281 17.710938 -7.210938 17.421875 -6.515625 C 16.953125 -5.398438 15.75 -3.953125 13.8125 -2.171875 Z M 8.078125 -6.15625 C 8.609375 -5.601562 9.0625 -5.328125 9.4375 -5.328125 C 9.820312 -5.328125 10.273438 -5.601562 10.796875 -6.15625 C 11.328125 -6.71875 11.703125 -7.25 11.921875 -7.75 C 12.140625 -8.25 12.25 -9.613281 12.25 -11.84375 L 12.25 -16.640625 C 12.25 -18.867188 12.140625 -20.234375 11.921875 -20.734375 C 11.703125 -21.234375 11.328125 -21.757812 10.796875 -22.3125 C 10.273438 -22.875 9.820312 -23.15625 9.4375 -23.15625 C 9.0625 -23.15625 8.609375 -22.875 8.078125 -22.3125 C 7.546875 -21.757812 7.171875 -21.234375 6.953125 -20.734375 C 6.734375 -20.234375 6.625 -18.867188 6.625 -16.640625 L 6.625 -11.84375 C 6.625 -9.613281 6.734375 -8.25 6.953125 -7.75 C 7.171875 -7.25 7.546875 -6.71875 8.078125 -6.15625 Z M 8.078125 -6.15625 " />
            </g>
        </g>
    </g>
    <g fill="#fff" fill-opacity="1">
        <g transform="translate(151.386498, 168.210164)">
            <g>
                <path
                    d="M 7.28125 -26.859375 C 9.070312 -28.265625 10.425781 -28.96875 11.34375 -28.96875 C 12.269531 -28.96875 13.703125 -28.078125 15.640625 -26.296875 C 17.578125 -24.523438 18.78125 -23.082031 19.25 -21.96875 C 19.539062 -21.257812 19.6875 -19.484375 19.6875 -16.640625 L 19.6875 -11.84375 C 19.6875 -8.988281 19.539062 -7.210938 19.25 -6.515625 C 18.757812 -5.453125 17.578125 -4.097656 15.703125 -2.453125 C 13.828125 -0.816406 12.347656 0 11.265625 0 L 2.84375 0 L 2.84375 -17.421875 C 2.84375 -19.609375 2.6875 -21.148438 2.375 -22.046875 C 2.0625 -22.941406 1.40625 -24 0.40625 -25.21875 L 5.78125 -28.96875 C 6.34375 -28.53125 6.84375 -27.828125 7.28125 -26.859375 Z M 11.265625 -23.15625 C 10.484375 -23.15625 9.507812 -22.894531 8.34375 -22.375 C 8.425781 -21.8125 8.46875 -20.945312 8.46875 -19.78125 L 8.46875 -4.921875 L 11.265625 -4.921875 C 11.648438 -4.921875 12.101562 -5.195312 12.625 -5.75 C 13.15625 -6.3125 13.53125 -6.84375 13.75 -7.34375 C 13.96875 -7.84375 14.078125 -9.207031 14.078125 -11.4375 L 14.078125 -16.640625 C 14.078125 -18.867188 13.96875 -20.234375 13.75 -20.734375 C 13.53125 -21.234375 13.15625 -21.757812 12.625 -22.3125 C 12.101562 -22.875 11.648438 -23.15625 11.265625 -23.15625 Z M 11.265625 -23.15625 " />
            </g>
        </g>
    </g>
    <g fill="#fff" fill-opacity="1">
        <g transform="translate(177.549504, 168.210164)">
            <g>
                <path
                    d="M 7.65625 -17.328125 L 14.9375 -17.328125 L 14.9375 -12.40625 L 7.65625 -12.40625 L 7.65625 -4.921875 L 17.375 -4.921875 L 17.375 0 L 2.03125 0 L 2.03125 -25.0625 L 7.65625 -28.96875 L 16.71875 -28.96875 L 16.71875 -24 L 9.15625 -24 L 7.65625 -22.953125 Z M 7.65625 -17.328125 " />
            </g>
        </g>
    </g>
    <g fill="#fff" fill-opacity="1">
        <g transform="translate(200.376134, 168.210164)">
            <g />
        </g>
    </g>
    <g fill="#fff" fill-opacity="1">
        <g transform="translate(214.983893, 168.210164)">
            <g>
                <path
                    d="M 9.4375 -27.5 C 10.332031 -27.5 11.640625 -26.734375 13.359375 -25.203125 C 15.085938 -23.671875 16.273438 -22.390625 16.921875 -21.359375 C 17.222656 -20.867188 17.375 -19.765625 17.375 -18.046875 C 17.375 -16.328125 17.195312 -15.1875 16.84375 -14.625 C 16.488281 -14.070312 14.992188 -12.972656 12.359375 -11.328125 C 9.734375 -9.691406 8.097656 -8.453125 7.453125 -7.609375 C 7.234375 -7.304688 7.125 -6.75 7.125 -5.9375 L 7.125 -4.46875 L 17.203125 -4.46875 L 17.203125 0 L 1.5 0 L 1.5 -5.53125 C 1.5 -7.132812 1.6875 -8.316406 2.0625 -9.078125 C 2.445312 -9.835938 3.273438 -10.738281 4.546875 -11.78125 C 5.828125 -12.820312 7.226562 -13.835938 8.75 -14.828125 C 10.269531 -15.816406 11.175781 -16.429688 11.46875 -16.671875 C 11.769531 -16.921875 11.921875 -17.367188 11.921875 -18.015625 C 11.921875 -18.671875 11.832031 -19.273438 11.65625 -19.828125 C 11.476562 -20.390625 11.144531 -20.929688 10.65625 -21.453125 C 10.164062 -21.984375 9.722656 -22.25 9.328125 -22.25 C 8.941406 -22.25 8.3125 -21.738281 7.4375 -20.71875 C 6.570312 -19.707031 6.003906 -18.578125 5.734375 -17.328125 L 1.34375 -19.9375 C 1.71875 -21.675781 2.796875 -23.367188 4.578125 -25.015625 C 6.359375 -26.671875 7.976562 -27.5 9.4375 -27.5 Z M 9.4375 -27.5 " />
            </g>
        </g>
    </g>
    <g fill="#fff" fill-opacity="1">
        <g transform="translate(238.298779, 168.210164)">
            <g>
                <path
                    d="M 13.546875 -1.875 C 11.734375 -0.300781 10.363281 0.484375 9.4375 0.484375 C 8.519531 0.484375 7.148438 -0.300781 5.328125 -1.875 C 3.515625 -3.445312 2.390625 -4.722656 1.953125 -5.703125 C 1.648438 -6.265625 1.5 -8.039062 1.5 -11.03125 L 1.5 -15.984375 C 1.5 -18.835938 1.679688 -20.679688 2.046875 -21.515625 C 2.421875 -22.359375 3.515625 -23.566406 5.328125 -25.140625 C 7.148438 -26.710938 8.519531 -27.5 9.4375 -27.5 C 10.363281 -27.5 11.71875 -26.710938 13.5 -25.140625 C 15.289062 -23.566406 16.429688 -22.289062 16.921875 -21.3125 C 17.222656 -20.695312 17.375 -18.921875 17.375 -15.984375 L 17.375 -11.03125 C 17.375 -8.175781 17.191406 -6.328125 16.828125 -5.484375 C 16.460938 -4.648438 15.367188 -3.445312 13.546875 -1.875 Z M 8.234375 -5.40625 C 8.710938 -5 9.113281 -4.796875 9.4375 -4.796875 C 9.757812 -4.796875 10.160156 -5 10.640625 -5.40625 C 11.117188 -5.8125 11.453125 -6.179688 11.640625 -6.515625 C 11.828125 -6.859375 11.921875 -8.363281 11.921875 -11.03125 L 11.921875 -15.984375 C 11.921875 -18.242188 11.84375 -19.644531 11.6875 -20.1875 C 11.539062 -20.726562 11.21875 -21.203125 10.71875 -21.609375 C 10.21875 -22.015625 9.796875 -22.21875 9.453125 -22.21875 C 9.117188 -22.21875 8.703125 -22.015625 8.203125 -21.609375 C 7.703125 -21.203125 7.367188 -20.785156 7.203125 -20.359375 C 7.035156 -19.941406 6.953125 -18.484375 6.953125 -15.984375 L 6.953125 -11.03125 C 6.953125 -8.394531 7.046875 -6.898438 7.234375 -6.546875 C 7.429688 -6.191406 7.765625 -5.8125 8.234375 -5.40625 Z M 8.234375 -5.40625 " />
            </g>
        </g>
    </g>
    <g fill="#fff" fill-opacity="1">
        <g transform="translate(261.613665, 168.210164)">
            <g>
                <path
                    d="M 9.4375 -27.5 C 10.332031 -27.5 11.640625 -26.734375 13.359375 -25.203125 C 15.085938 -23.671875 16.273438 -22.390625 16.921875 -21.359375 C 17.222656 -20.867188 17.375 -19.765625 17.375 -18.046875 C 17.375 -16.328125 17.195312 -15.1875 16.84375 -14.625 C 16.488281 -14.070312 14.992188 -12.972656 12.359375 -11.328125 C 9.734375 -9.691406 8.097656 -8.453125 7.453125 -7.609375 C 7.234375 -7.304688 7.125 -6.75 7.125 -5.9375 L 7.125 -4.46875 L 17.203125 -4.46875 L 17.203125 0 L 1.5 0 L 1.5 -5.53125 C 1.5 -7.132812 1.6875 -8.316406 2.0625 -9.078125 C 2.445312 -9.835938 3.273438 -10.738281 4.546875 -11.78125 C 5.828125 -12.820312 7.226562 -13.835938 8.75 -14.828125 C 10.269531 -15.816406 11.175781 -16.429688 11.46875 -16.671875 C 11.769531 -16.921875 11.921875 -17.367188 11.921875 -18.015625 C 11.921875 -18.671875 11.832031 -19.273438 11.65625 -19.828125 C 11.476562 -20.390625 11.144531 -20.929688 10.65625 -21.453125 C 10.164062 -21.984375 9.722656 -22.25 9.328125 -22.25 C 8.941406 -22.25 8.3125 -21.738281 7.4375 -20.71875 C 6.570312 -19.707031 6.003906 -18.578125 5.734375 -17.328125 L 1.34375 -19.9375 C 1.71875 -21.675781 2.796875 -23.367188 4.578125 -25.015625 C 6.359375 -26.671875 7.976562 -27.5 9.4375 -27.5 Z M 9.4375 -27.5 " />
            </g>
        </g>
    </g>
    <g fill="#fff" fill-opacity="1">
        <g transform="translate(284.928551, 168.210164)">
            <g>
                <path
                    d="M 5.8125 -9.921875 C 6.082031 -8.515625 6.695312 -7.238281 7.65625 -6.09375 C 8.625 -4.957031 9.375 -4.390625 9.90625 -4.390625 C 10.4375 -4.390625 11 -4.945312 11.59375 -6.0625 C 11.8125 -6.5 11.921875 -7.257812 11.921875 -8.34375 C 11.921875 -9.425781 11.742188 -10.195312 11.390625 -10.65625 C 10.117188 -12.09375 8.738281 -12.9375 7.25 -13.1875 L 7.25 -15.90625 C 8.738281 -16.445312 9.957031 -17.085938 10.90625 -17.828125 C 11.3125 -18.117188 11.515625 -18.847656 11.515625 -20.015625 C 11.515625 -20.535156 11.242188 -21.03125 10.703125 -21.5 C 10.160156 -21.976562 9.710938 -22.21875 9.359375 -22.21875 C 9.003906 -22.21875 8.441406 -21.710938 7.671875 -20.703125 C 6.898438 -19.703125 6.390625 -18.59375 6.140625 -17.375 L 1.75 -19.890625 C 2.125 -21.628906 3.148438 -23.332031 4.828125 -25 C 6.515625 -26.664062 8.050781 -27.5 9.4375 -27.5 C 10.332031 -27.5 11.703125 -26.785156 13.546875 -25.359375 C 15.390625 -23.941406 16.4375 -22.867188 16.6875 -22.140625 C 16.875 -21.617188 16.96875 -20.59375 16.96875 -19.0625 C 16.96875 -17.53125 16.816406 -16.570312 16.515625 -16.1875 C 16.003906 -15.570312 15.34375 -15.046875 14.53125 -14.609375 C 15.800781 -13.597656 16.59375 -12.84375 16.90625 -12.34375 C 17.21875 -11.84375 17.375 -10.625 17.375 -8.6875 C 17.375 -6.75 17.195312 -5.429688 16.84375 -4.734375 C 16.488281 -4.046875 15.378906 -3.003906 13.515625 -1.609375 C 11.660156 -0.210938 10.300781 0.484375 9.4375 0.484375 C 7.976562 0.484375 6.359375 -0.3125 4.578125 -1.90625 C 2.796875 -3.507812 1.71875 -5.164062 1.34375 -6.875 Z M 5.8125 -9.921875 " />
            </g>
        </g>
    </g>
    <g clip-path="url(#18be033b7e)">
        <g clip-path="url(#2f9c9881b6)">
            <path fill="url(#4d0f67f272)"
                d="M 58.378906 47.96875 L 58.378906 179.21875 L 191.878906 179.21875 L 191.878906 47.96875 Z M 58.378906 47.96875 "
                fill-rule="nonzero" />
        </g>
    </g>
    <g fill="#fff" fill-opacity="1">
        <g transform="translate(196.90812, 126.678743)">
            <g>
                <path
                    d="M 13.8125 -2.171875 C 11.875 -0.398438 10.414062 0.484375 9.4375 0.484375 C 8.457031 0.484375 7 -0.398438 5.0625 -2.171875 C 3.125 -3.953125 1.925781 -5.398438 1.46875 -6.515625 C 1.164062 -7.210938 1.015625 -8.988281 1.015625 -11.84375 L 1.015625 -16.640625 C 1.015625 -19.484375 1.164062 -21.257812 1.46875 -21.96875 C 1.925781 -23.082031 3.125 -24.523438 5.0625 -26.296875 C 7 -28.078125 8.457031 -28.96875 9.4375 -28.96875 C 10.414062 -28.96875 11.875 -28.078125 13.8125 -26.296875 C 15.75 -24.523438 16.953125 -23.082031 17.421875 -21.96875 C 17.710938 -21.257812 17.859375 -19.484375 17.859375 -16.640625 L 17.859375 -11.84375 C 17.859375 -8.988281 17.710938 -7.210938 17.421875 -6.515625 C 16.953125 -5.398438 15.75 -3.953125 13.8125 -2.171875 Z M 8.078125 -6.15625 C 8.609375 -5.601562 9.0625 -5.328125 9.4375 -5.328125 C 9.820312 -5.328125 10.273438 -5.601562 10.796875 -6.15625 C 11.328125 -6.71875 11.703125 -7.25 11.921875 -7.75 C 12.140625 -8.25 12.25 -9.613281 12.25 -11.84375 L 12.25 -16.640625 C 12.25 -18.867188 12.140625 -20.234375 11.921875 -20.734375 C 11.703125 -21.234375 11.328125 -21.757812 10.796875 -22.3125 C 10.273438 -22.875 9.820312 -23.15625 9.4375 -23.15625 C 9.0625 -23.15625 8.609375 -22.875 8.078125 -22.3125 C 7.546875 -21.757812 7.171875 -21.234375 6.953125 -20.734375 C 6.734375 -20.234375 6.625 -18.867188 6.625 -16.640625 L 6.625 -11.84375 C 6.625 -9.613281 6.734375 -8.25 6.953125 -7.75 C 7.171875 -7.25 7.546875 -6.71875 8.078125 -6.15625 Z M 8.078125 -6.15625 " />
            </g>
        </g>
    </g>
    <g fill="#fff" fill-opacity="1">
        <g transform="translate(220.223002, 126.678743)">
            <g>
                <path
                    d="M 2.84375 0 L 2.84375 -16.234375 C 2.84375 -19.566406 3.113281 -21.707031 3.65625 -22.65625 C 4.195312 -23.613281 5.359375 -24.90625 7.140625 -26.53125 C 8.921875 -28.15625 10.242188 -28.96875 11.109375 -28.96875 C 12.296875 -28.96875 13.769531 -28.492188 15.53125 -27.546875 C 17.300781 -26.597656 18.617188 -25.523438 19.484375 -24.328125 L 14.96875 -21.203125 C 13.445312 -22.722656 12.226562 -23.484375 11.3125 -23.484375 C 10.957031 -23.484375 10.550781 -23.257812 10.09375 -22.8125 C 9.632812 -22.363281 9.25 -21.882812 8.9375 -21.375 C 8.625 -20.875 8.46875 -19.609375 8.46875 -17.578125 L 8.46875 -16.640625 L 15.75 -16.640625 L 15.75 -11.71875 L 8.46875 -11.71875 L 8.46875 0 Z M 2.84375 0 " />
            </g>
        </g>
    </g>
    <g fill="#fff" fill-opacity="1">
        <g transform="translate(244.06437, 126.678743)">
            <g />
        </g>
    </g>
</svg>